<?xml version="1.0" standalone="no"?>
<!DOCTYPE svg PUBLIC "-//W3C//DTD SVG 1.1//EN" "http://www.w3.org/Graphics/SVG/1.1/DTD/svg11.dtd" >
<svg xmlns="http://www.w3.org/2000/svg" xmlns:xlink="http://www.w3.org/1999/xlink" version="1.1">
<metadata>
Created by FontForge 20190801 at Thu Sep  8 15:10:50 2022
 By www-data
Vadym Aksieiev(c)
</metadata>
<defs>
<font id="NeutralFaceBold" horiz-adv-x="0" >
  <font-face 
    font-family="NeutralFaceBold"
    font-weight="700"
    font-stretch="normal"
    units-per-em="1000"
    panose-1="0 0 0 0 0 0 0 0 0 0"
    ascent="800"
    descent="-200"
    cap-height="809"
    bbox="-58 -210 1863 1075"
    underline-thickness="0"
    underline-position="0"
    unicode-range="U+000A-F010"
  />
<missing-glyph horiz-adv-x="527" 
d="M50 700h427v-700h-427v700zM78 680l185 -309l186 309h-371zM251 350l-180 300v-601zM264 329l-185 -308h370zM276 350l181 -303v605z" />
    <glyph glyph-name="hyphengreater.liga" unicode="&#x2d;&#x3e;" horiz-adv-x="1120" 
d="M1074 498v-131q-6 -1 -15 -4t-36 -13.5t-51 -24t-53.5 -37t-51 -51t-36 -67.5t-14.5 -85h-125q0 2 -0.5 5t-1 13.5t0.5 22t3.5 28.5t7.5 34.5t14.5 39.5t22 44t31.5 46.5t43 48.5h-767v131h767q-42 41 -69.5 85.5t-37 78t-13.5 61t-3 42.5l2 15h125q0 -45 14 -85
t36.5 -67.5t50 -50.5t55 -37.5t50 -24t36.5 -13.5z" />
    <glyph glyph-name="lesshyphen.liga" unicode="&#x3c;&#x2d;" horiz-adv-x="1120" 
d="M46 367v131q5 1 14.5 4t36 13.5t51 24t54 37t51 51t36 67.5t14.5 85h124q1 -6 2 -16t-2.5 -41t-13.5 -62.5t-37.5 -76.5t-68.5 -86h767v-131h-767q41 -41 68.5 -85.5t37.5 -78t14 -61t2 -42.5l-2 -15h-124q0 35 -9 67.5t-23.5 57t-34 46.5t-40.5 37.5t-42.5 28.5t-41 21
t-34 13.5t-23.5 7.5z" />
    <glyph glyph-name=".notdef" horiz-adv-x="527" 
d="M50 700h427v-700h-427v700zM78 680l185 -309l186 309h-371zM251 350l-180 300v-601zM264 329l-185 -308h370zM276 350l181 -303v605z" />
    <glyph glyph-name=".null" 
 />
    <glyph glyph-name=".null" 
 />
    <glyph glyph-name="nonmarkingreturn" horiz-adv-x="333" 
 />
    <glyph glyph-name="controlLF" unicode="&#xa;" 
 />
    <glyph glyph-name="controlCR" unicode="&#xd;" 
 />
    <glyph glyph-name="space" unicode=" " horiz-adv-x="344" 
 />
    <glyph glyph-name="exclam" unicode="!" horiz-adv-x="258" 
d="M165 263h-75l-45 546h165zM199 0h-143v145h143v-145z" />
    <glyph glyph-name="quotedbl" unicode="&#x22;" horiz-adv-x="432" 
d="M238 809h162v-174q0 -74 -49 -118t-129 -35v72q41 -9 73.5 10.5t33.5 70.5h-91v174zM41 635v174h162v-174q0 -74 -49 -118t-129 -35v72q28 -6 54 2.5t41 30.5l0.5 1l0.5 1q0 1 0.5 1t0.5 1q10 18 10 44h-91z" />
    <glyph glyph-name="numbersign" unicode="#" horiz-adv-x="925" 
d="M868 480h-153l-49 -171h186l-41 -129h-182l-52 -180h-144l52 180h-159l-52 -180h-144l51 180h-169l41 129h166l49 171h-198l43 149h197l52 180h144l-52 -180h159l52 180h144l-52 -180h154zM522 309l49 171h-159l-49 -171h159z" />
    <glyph glyph-name="dollar" unicode="$" horiz-adv-x="732" 
d="M700 257q0 -71 -30.5 -126.5t-92.5 -92.5t-150 -48v-136h-124v133q-125 11 -199 82.5t-74 174.5v15h193v-15q0 -49 43 -71.5t106 -22.5q39 0 69.5 7.5t52 29.5t21.5 57q0 14 -6 26t-20.5 22t-28 17t-39.5 14.5t-42.5 12t-48.5 11.5q-29 7 -44 11t-43 12t-44.5 14
t-40.5 17t-38 22t-30.5 26t-25 32t-15 39t-6.5 46q0 103 69.5 170.5t190.5 83.5v152h124v-150q119 -13 192.5 -83t73.5 -173v-15h-178v15q0 44 -47.5 71t-109.5 27q-28 0 -56 -8t-50 -28t-22 -47q0 -14 6 -25.5t20 -20.5t26.5 -15.5t37.5 -13.5t41 -11t47 -11
q29 -6 44.5 -9.5t44.5 -11.5t45 -14.5t40.5 -17.5t39 -22t31 -27t25.5 -34t15.5 -41t6.5 -50z" />
    <glyph glyph-name="percent" unicode="%" horiz-adv-x="964" 
d="M601 809h154l-392 -809h-154zM761 392q85 0 137.5 -56t52.5 -147q0 -41 -10.5 -75.5t-29 -57.5t-43 -39.5t-51.5 -24t-56 -7.5q-37 0 -70 12.5t-60.5 36.5t-43.5 64t-16 91q0 44 14 82t39 64.5t60.5 41.5t76.5 15zM761 94q68 0 68 95q0 26 -5.5 45.5t-13 28.5t-18.5 14
t-17 5.5t-14 0.5q-31 0 -49.5 -19t-18.5 -75q0 -27 5.5 -46t13 -28.5t18.5 -14.5t17 -5.5t14 -0.5zM393 621q0 -51 -16 -91t-43.5 -64t-61 -36t-70 -12t-69.5 12t-60.5 36t-43.5 64t-16 91q0 90 53 147t137 57q85 0 137.5 -56t52.5 -148zM203 527q68 0 68 94q0 27 -5.5 46
t-13 28t-18.5 14t-17 6t-14 1q-15 0 -25.5 -3.5t-21 -12.5t-16 -29t-5.5 -50q0 -22 3.5 -39.5t10.5 -27t13.5 -15.5t15.5 -8.5t13.5 -3t11.5 -0.5z" />
    <glyph glyph-name="ampersand" unicode="&#x26;" horiz-adv-x="765" 
d="M611 184l146 -183h-197q-22 30 -52 71q-111 -87 -238 -87q-41 0 -76 8t-60.5 21.5t-45.5 32.5t-33 40t-22 44t-12.5 45t-3.5 44q0 58 23.5 105.5t57 78t83.5 60.5q-75 110 -51 219q15 71 84 113.5t167 26.5q78 -13 119 -61t35 -131q-3 -41 -14 -72t-32.5 -54.5t-39 -36.5
t-49.5 -33l115 -135q40 68 42 133h144q0 -54 -23.5 -121t-66.5 -128zM277 658q-5 -19 -4 -36.5t7 -32t12 -25.5t12 -17l5 -6q1 1 4 2t11 4t16 7t18 10.5t17.5 13.5t14.5 16.5t10 20.5q10 33 -3.5 54t-39.5 30q-14 4 -30 1.5t-30.5 -14t-19.5 -28.5zM353 136q27 11 66 46
q-100 123 -148 180q-31 -19 -51.5 -37t-34.5 -44t-14 -56q0 -56 54.5 -87t127.5 -2z" />
    <glyph glyph-name="quotesingle" unicode="'" horiz-adv-x="228" 
d="M40 809h162v-174q0 -74 -49 -118t-129 -35v72q41 -9 73.5 10.5t33.5 70.5h-91v174z" />
    <glyph glyph-name="quotesingle" unicode="&#x2019;" horiz-adv-x="228" 
d="M40 809h162v-174q0 -74 -49 -118t-129 -35v72q41 -9 73.5 10.5t33.5 70.5h-91v174z" />
    <glyph glyph-name="quotesingle" unicode="&#x2018;" horiz-adv-x="228" 
d="M40 809h162v-174q0 -74 -49 -118t-129 -35v72q41 -9 73.5 10.5t33.5 70.5h-91v174z" />
    <glyph glyph-name="parenleft" unicode="(" horiz-adv-x="448" 
d="M448 928q-86 -97 -145 -199.5t-88.5 -221t-19 -234.5t73 -241.5t178.5 -241.5h-155q-139 139 -204 287t-56.5 292t77 284t195.5 275h144z" />
    <glyph glyph-name="parenright" unicode=")" horiz-adv-x="448" 
d="M159 928q127 -135 195.5 -275t77 -284t-56.5 -292t-204 -287h-155q116 116 178.5 241.5t73 241.5t-19 234.5t-88.5 221t-145 199.5h144z" />
    <glyph glyph-name="asterisk" unicode="*" horiz-adv-x="383" 
d="M364 647l-109 -33l71 -101l-65 -45l-70 100l-71 -100l-64 45l70 101l-107 33l23 76l105 -33v120h88v-120l106 33z" />
    <glyph glyph-name="plus" unicode="+" horiz-adv-x="528" 
d="M507 508v-150h-166v-168h-155v168h-165v150h165v168h155v-168h166z" />
    <glyph glyph-name="comma" unicode="," horiz-adv-x="205" 
d="M21 174h162v-174q0 -74 -49 -118t-129 -35v72q41 -9 73.5 10.5t33.5 70.5h-91v174z" />
    <glyph glyph-name="hyphen" unicode="-" horiz-adv-x="428" 
d="M408 357h-388v150h388v-150z" />
    <glyph glyph-name="period" unicode="." horiz-adv-x="205" 
d="M183 0h-162v174h162v-174z" />
    <glyph glyph-name="slash" unicode="/" horiz-adv-x="682" 
d="M451 810h172l-393 -810h-171z" />
    <glyph glyph-name="zero" unicode="0" horiz-adv-x="757" 
d="M378 827q162 0 255 -113t93 -308q0 -198 -96 -309.5t-252 -111.5q-154 0 -251 111.5t-97 309.5q0 193 95 307t253 114zM378 160q75 0 120.5 68t45.5 178q0 44 -6.5 81.5t-20 68t-33.5 52t-47 33t-59 11.5q-87 0 -126.5 -61t-39.5 -185q0 -110 44 -178t122 -68z" />
    <glyph glyph-name="one" unicode="1" horiz-adv-x="610" 
d="M393 162h157v-162h-521v162h202v453l-190 -117l1 175l189 136h162v-647z" />
    <glyph glyph-name="two" unicode="2" horiz-adv-x="630" 
d="M358 311q-78 -18 -112 -51t-34 -98h385v-162h-544q0 52 -0.5 83t-0.5 79q0 52 15 95.5t40 74t60 54.5t71 38.5t78 23.5q34 8 56.5 21.5t32.5 32.5t13.5 36.5t3.5 42.5q0 38 -27 64.5t-65 26.5q-57 0 -89.5 -29.5t-32.5 -76.5v-16h-177v16q0 118 72.5 188.5t208.5 70.5
q145 0 210 -67.5t65 -191.5q0 -106 -62 -168t-167 -87z" />
    <glyph glyph-name="three" unicode="3" horiz-adv-x="623" 
d="M465 462q53 -19 90 -71t37 -126q0 -130 -74.5 -205t-210.5 -75t-211 77.5t-75 202.5h163q0 -64 35 -99.5t88.5 -35.5t89 35.5t35.5 99.5q0 68 -38 99.5t-114 31.5v100q34 0 58.5 9t35.5 24t15.5 29t4.5 29q0 44 -24.5 69t-62.5 25q-18 0 -34 -6t-28 -18t-19 -30t-7 -40
h-153q-1 10 -1 18q0 93 65 157t177 64q56 0 102.5 -18t76.5 -48.5t46 -70.5t16 -84q0 -52 -25.5 -92.5t-57.5 -50.5z" />
    <glyph glyph-name="four" unicode="4" horiz-adv-x="677" 
d="M658 364v-150h-122v-214h-162v214h-360v150l360 445h162v-445h122zM186 364h188v228z" />
    <glyph glyph-name="five" unicode="5" horiz-adv-x="620" 
d="M331 549q56 0 104 -20.5t81 -55.5t51 -83.5t18 -103.5q0 -78 -23.5 -138.5t-62 -94.5t-82.5 -51t-92 -17q-53 0 -96 9.5t-73.5 27.5t-52.5 39t-36.5 49t-22.5 52.5t-13 53.5v4h172v-2q22 -86 106 -86q60 0 92 40t32 114q0 27 -6 50.5t-18.5 45t-36 34.5t-56.5 13
q-31 0 -52 -9.5t-33.5 -27t-21.5 -46.5h-145v462h487v-163h-329l1 -127q28 18 50 24.5t58 6.5z" />
    <glyph glyph-name="six" unicode="6" horiz-adv-x="655" 
d="M191 455q31 37 76 56.5t92.5 19t95 -19.5t84.5 -52t60 -84t23 -111q0 -53 -10.5 -96.5t-28 -71.5t-42 -49.5t-48.5 -33t-52 -18t-48 -8.5t-41 -2q-50 0 -85 4.5t-82.5 26.5t-77.5 61t-51.5 115t-21.5 182q0 77 9 142t30.5 123t54.5 98.5t84 64t117 23.5q41 0 76 -7.5
t60.5 -20.5t46.5 -29.5t34.5 -34.5t23.5 -36.5t15.5 -35t8.5 -29.5t4 -20l1 -8h-167q-4 12 -9.5 21.5t-16 19.5t-30 15.5t-45.5 4.5q-59 -1 -97 -57.5t-43 -152.5zM350 129q53 0 88 35.5t35 99.5q0 31 -9 56.5t-25.5 42.5t-39 26t-49.5 9q-34 0 -61.5 -15t-44.5 -46t-17 -73
q0 -64 35 -99.5t88 -35.5z" />
    <glyph glyph-name="seven" unicode="7" horiz-adv-x="624" 
d="M564 809v-160v0q-119 -108 -197.5 -292t-78.5 -348v-9h-165v9q0 160 65 334.5t181 305.5h-365v160h560z" />
    <glyph glyph-name="eight" unicode="8" horiz-adv-x="644" 
d="M484 462q35 -12 64 -37.5t48 -67.5t19 -93q0 -130 -76.5 -204.5t-216.5 -74.5t-217 77t-77 202q0 51 20.5 93t49 67t62.5 37q-15 5 -30 18t-27.5 31.5t-21 43.5t-8.5 51q0 93 67 157t181.5 64t181.5 -64.5t67 -156.5q0 -52 -26.5 -92.5t-59.5 -50.5zM322 681
q-39 0 -64.5 -25t-25.5 -69q0 -29 12 -52q8 -14 21 -24q0 -1 1 -1.5t2 -0.5q3 -3 7 -5q3 -2 7 -4q4 -1 8 -3q6 -2 11 -3q2 0 5 -1q9 -1 15.5 -1t15.5 1q3 1 5 1q5 1 10 3t9 4q4 1 7 3q4 2 7 5q1 0 2 1l1 1q13 10 21 25q12 22 12 51q0 43 -25 68.5t-64 25.5zM323 130
q55 0 91 35t36 99q0 61 -35 98h-1q-35 37 -92 37q-26 0 -49 -9t-40.5 -26t-27.5 -42.5t-10 -57.5q0 -42 17.5 -73t46 -46t64.5 -15z" />
    <glyph glyph-name="nine" unicode="9" horiz-adv-x="655" 
d="M462 355q-31 -37 -76 -56.5t-92 -19t-94.5 19.5t-85 52t-60.5 84t-23 111q0 53 11 96.5t28 72t42 49.5t48.5 32.5t52 18t48 8.5t40.5 2q26 0 46 -1t47.5 -5.5t48.5 -12t45.5 -22t42 -34t35.5 -49t29 -67t17.5 -88t6.5 -110.5q0 -77 -8.5 -142t-30 -123t-54.5 -98.5
t-84 -64t-117 -23.5q-52 0 -95 12t-70.5 31.5t-48 43.5t-31 47.5t-17 43t-7.5 31.5l-1 12h167q4 -12 9 -21.5t16 -19.5t30 -15.5t45 -4.5q60 1 97.5 57.5t42.5 152.5zM303 681q-53 0 -88 -35.5t-35 -99.5q0 -41 16 -72t44 -46.5t63 -15.5q53 0 88.5 36t35.5 98
q0 64 -35.5 99.5t-88.5 35.5z" />
    <glyph glyph-name="colon" unicode=":" horiz-adv-x="223" 
d="M192 381h-162v174h162v-174zM192 0h-162v174h162v-174z" />
    <glyph glyph-name="semicolon" unicode=";" horiz-adv-x="223" 
d="M30 0v174h162v-174q0 -74 -49 -118t-129 -35v72q41 -9 73.5 10.5t33.5 70.5h-91zM184 381h-162v174h162v-174z" />
    <glyph glyph-name="less" unicode="&#x3c;" horiz-adv-x="727" 
d="M19 473l677 232v-162l-456 -156l456 -155v-162l-677 231v172z" />
    <glyph glyph-name="equal" unicode="=" horiz-adv-x="568" 
d="M539 237h-511v150h511v-150zM539 478h-511v151h511v-151z" />
    <glyph glyph-name="greater" unicode="&#x3e;" horiz-adv-x="727" 
d="M31 705l677 -232v-172l-677 -231v162l456 155l-456 156v162z" />
    <glyph glyph-name="question" unicode="?" horiz-adv-x="544" 
d="M337 0h-163v174h163v-174zM267 825q131 0 195.5 -57.5t64.5 -178.5q0 -32 -15 -61t-37.5 -50t-48 -46.5t-48 -50.5t-37 -62.5t-14.5 -81.5h-143q0 48 10.5 87.5t27 66t36.5 48.5t40 40t36.5 35t27 38.5t10.5 46.5q0 35 -29 59t-73 24q-121 0 -121 -141q-53 0 -89 0.5
t-58 0.5q0 59 14 108t44 89.5t82.5 63t124.5 22.5z" />
    <glyph glyph-name="at" unicode="@" horiz-adv-x="903" 
d="M877 461q2 -56 -9.5 -102t-37.5 -83t-70.5 -57.5t-105.5 -20.5q-56 0 -90.5 23.5t-47.5 51.5q-36 -56 -123 -56q-66 0 -118.5 54t-52.5 137q0 64 30.5 112.5t75 71.5t93.5 23q16 0 30.5 -3t25 -8t19 -11t14.5 -12t9.5 -10.5t5.5 -8.5l2 -3l4 41h112q-17 -199 -17 -271
q0 -30 35 -40q44 -13 81 22q43 40 43 124q0 38 -7 75t-28 80t-55 74.5t-93 53t-137 21.5q-86 0 -166 -45t-129.5 -122.5t-49.5 -165.5q0 -40 9.5 -79t27.5 -76.5t47.5 -69.5t66.5 -56t87 -38t107 -14q63 0 111 17.5t94 59.5h132q-29 -38 -66 -68.5t-80 -52t-91.5 -33
t-99.5 -11.5q-85 0 -156.5 21.5t-123.5 60t-88.5 91t-54 115.5t-17.5 133q0 114 61 211.5t162 153.5t217 56q86 0 156 -23t116 -59.5t78 -85.5t46.5 -98.5t15.5 -99.5zM424.5 311q38.5 0 63.5 25.5t25 71.5q0 45 -25 71t-64 26q-38 0 -63.5 -26t-25.5 -71q0 -46 25.5 -71.5
t64 -25.5z" />
    <glyph glyph-name="A" unicode="A" horiz-adv-x="686" 
d="M555 0l-63 167h-298l-63 -167h-170l297 809h188l279 -809h-170zM250 316h186l-93 247z" />
    <glyph glyph-name="A" unicode="&#xe5;" horiz-adv-x="686" 
d="M555 0l-63 167h-298l-63 -167h-170l297 809h188l279 -809h-170zM250 316h186l-93 247z" />
    <glyph glyph-name="A" unicode="&#xe3;" horiz-adv-x="686" 
d="M555 0l-63 167h-298l-63 -167h-170l297 809h188l279 -809h-170zM250 316h186l-93 247z" />
    <glyph glyph-name="A" unicode="&#xe2;" horiz-adv-x="686" 
d="M555 0l-63 167h-298l-63 -167h-170l297 809h188l279 -809h-170zM250 316h186l-93 247z" />
    <glyph glyph-name="A" unicode="&#xe0;" horiz-adv-x="686" 
d="M555 0l-63 167h-298l-63 -167h-170l297 809h188l279 -809h-170zM250 316h186l-93 247z" />
    <glyph glyph-name="A" unicode="&#xc5;" horiz-adv-x="686" 
d="M555 0l-63 167h-298l-63 -167h-170l297 809h188l279 -809h-170zM250 316h186l-93 247z" />
    <glyph glyph-name="A" unicode="&#xc3;" horiz-adv-x="686" 
d="M555 0l-63 167h-298l-63 -167h-170l297 809h188l279 -809h-170zM250 316h186l-93 247z" />
    <glyph glyph-name="A" unicode="&#xc2;" horiz-adv-x="686" 
d="M555 0l-63 167h-298l-63 -167h-170l297 809h188l279 -809h-170zM250 316h186l-93 247z" />
    <glyph glyph-name="A" unicode="&#xc0;" horiz-adv-x="686" 
d="M555 0l-63 167h-298l-63 -167h-170l297 809h188l279 -809h-170zM250 316h186l-93 247z" />
    <glyph glyph-name="A" unicode="a" horiz-adv-x="686" 
d="M555 0l-63 167h-298l-63 -167h-170l297 809h188l279 -809h-170zM250 316h186l-93 247z" />
    <glyph glyph-name="B" unicode="B" horiz-adv-x="710" 
d="M46 809h337q55 0 103 -20.5t80.5 -53.5t51 -75.5t18.5 -86.5q0 -68 -34.5 -118.5t-60.5 -50.5q39 0 74.5 -24.5t58 -68t22.5 -94.5q0 -87 -64.5 -152t-170.5 -65h-415v809zM226 652v-169h173q34 0 58.5 25t24.5 60q0 33 -25 58.5t-57 25.5h-174zM450 157q22 0 41.5 11
t30.5 30.5t11 41.5q0 36 -25 61t-61 25h-221v-169h224z" />
    <glyph glyph-name="B" unicode="b" horiz-adv-x="710" 
d="M46 809h337q55 0 103 -20.5t80.5 -53.5t51 -75.5t18.5 -86.5q0 -68 -34.5 -118.5t-60.5 -50.5q39 0 74.5 -24.5t58 -68t22.5 -94.5q0 -87 -64.5 -152t-170.5 -65h-415v809zM226 652v-169h173q34 0 58.5 25t24.5 60q0 33 -25 58.5t-57 25.5h-174zM450 157q22 0 41.5 11
t30.5 30.5t11 41.5q0 36 -25 61t-61 25h-221v-169h224z" />
    <glyph glyph-name="C" unicode="C" horiz-adv-x="797" 
d="M601 326h183q-15 -109 -70 -187.5t-134.5 -116t-175.5 -37.5q-64 0 -121.5 17t-106 52t-83.5 84.5t-55 118t-20 149.5q0 98 30.5 179t83 133t122.5 80t150 28q145 0 247 -84t129 -234h-186q-16 74 -67 112.5t-123 38.5q-95 0 -153 -64.5t-58 -188.5q0 -125 58 -189
t153 -64q79 0 133.5 44t63.5 129z" />
    <glyph glyph-name="C" unicode="&#xe7;" horiz-adv-x="797" 
d="M601 326h183q-15 -109 -70 -187.5t-134.5 -116t-175.5 -37.5q-64 0 -121.5 17t-106 52t-83.5 84.5t-55 118t-20 149.5q0 98 30.5 179t83 133t122.5 80t150 28q145 0 247 -84t129 -234h-186q-16 74 -67 112.5t-123 38.5q-95 0 -153 -64.5t-58 -188.5q0 -125 58 -189
t153 -64q79 0 133.5 44t63.5 129z" />
    <glyph glyph-name="C" unicode="&#xc7;" horiz-adv-x="797" 
d="M601 326h183q-15 -109 -70 -187.5t-134.5 -116t-175.5 -37.5q-64 0 -121.5 17t-106 52t-83.5 84.5t-55 118t-20 149.5q0 98 30.5 179t83 133t122.5 80t150 28q145 0 247 -84t129 -234h-186q-16 74 -67 112.5t-123 38.5q-95 0 -153 -64.5t-58 -188.5q0 -125 58 -189
t153 -64q79 0 133.5 44t63.5 129z" />
    <glyph glyph-name="C" unicode="c" horiz-adv-x="797" 
d="M601 326h183q-15 -109 -70 -187.5t-134.5 -116t-175.5 -37.5q-64 0 -121.5 17t-106 52t-83.5 84.5t-55 118t-20 149.5q0 98 30.5 179t83 133t122.5 80t150 28q145 0 247 -84t129 -234h-186q-16 74 -67 112.5t-123 38.5q-95 0 -153 -64.5t-58 -188.5q0 -125 58 -189
t153 -64q79 0 133.5 44t63.5 129z" />
    <glyph glyph-name="D" unicode="D" horiz-adv-x="756" 
d="M356 810q105 0 193.5 -54.5t140.5 -147.5t52 -203t-52 -203t-140.5 -147.5t-193.5 -54.5h-310v810h310zM226 649v-488h136q51 0 96.5 30.5t74.5 81t34 108.5v0q0 1 0.5 3t0.5 3v18v3.5v3.5q-3 95 -63.5 166t-142.5 71h-136z" />
    <glyph glyph-name="D" unicode="d" horiz-adv-x="756" 
d="M356 810q105 0 193.5 -54.5t140.5 -147.5t52 -203t-52 -203t-140.5 -147.5t-193.5 -54.5h-310v810h310zM226 649v-488h136q51 0 96.5 30.5t74.5 81t34 108.5v0q0 1 0.5 3t0.5 3v18v3.5v3.5q-3 95 -63.5 166t-142.5 71h-136z" />
    <glyph glyph-name="E" unicode="E" horiz-adv-x="671" 
d="M46 809h579v-162h-404v-144l336 -1v-162l-336 2v-180h404v-162h-579v809z" />
    <glyph glyph-name="E" unicode="&#xeb;" horiz-adv-x="671" 
d="M46 809h579v-162h-404v-144l336 -1v-162l-336 2v-180h404v-162h-579v809z" />
    <glyph glyph-name="E" unicode="&#xea;" horiz-adv-x="671" 
d="M46 809h579v-162h-404v-144l336 -1v-162l-336 2v-180h404v-162h-579v809z" />
    <glyph glyph-name="E" unicode="&#xe8;" horiz-adv-x="671" 
d="M46 809h579v-162h-404v-144l336 -1v-162l-336 2v-180h404v-162h-579v809z" />
    <glyph glyph-name="E" unicode="&#xcb;" horiz-adv-x="671" 
d="M46 809h579v-162h-404v-144l336 -1v-162l-336 2v-180h404v-162h-579v809z" />
    <glyph glyph-name="E" unicode="&#xca;" horiz-adv-x="671" 
d="M46 809h579v-162h-404v-144l336 -1v-162l-336 2v-180h404v-162h-579v809z" />
    <glyph glyph-name="E" unicode="&#xc8;" horiz-adv-x="671" 
d="M46 809h579v-162h-404v-144l336 -1v-162l-336 2v-180h404v-162h-579v809z" />
    <glyph glyph-name="E" unicode="e" horiz-adv-x="671" 
d="M46 809h579v-162h-404v-144l336 -1v-162l-336 2v-180h404v-162h-579v809z" />
    <glyph glyph-name="F" unicode="F" horiz-adv-x="613" 
d="M226 0h-180v809h570v-161h-390v-145h300v-161h-300v-342z" />
    <glyph glyph-name="F" unicode="f" horiz-adv-x="613" 
d="M226 0h-180v809h570v-161h-390v-145h300v-161h-300v-342z" />
    <glyph glyph-name="G" unicode="G" horiz-adv-x="807" 
d="M449 398h330v-397h-109l-15 72q-102 -88 -251 -88q-64 0 -121.5 17t-106 52t-83.5 84.5t-55 118t-20 149.5q0 98 30.5 179t83 133t122.5 80t150 28q69 0 130.5 -20.5t110 -58.5t83 -95.5t49.5 -128.5h-180q-24 67 -74.5 101.5t-118.5 34.5q-46 0 -84 -15.5t-66.5 -46
t-44.5 -79.5t-16 -112q0 -125 58 -189t153 -64q65 0 114.5 31t75.5 95h-145v119z" />
    <glyph glyph-name="G" unicode="g" horiz-adv-x="807" 
d="M449 398h330v-397h-109l-15 72q-102 -88 -251 -88q-64 0 -121.5 17t-106 52t-83.5 84.5t-55 118t-20 149.5q0 98 30.5 179t83 133t122.5 80t150 28q69 0 130.5 -20.5t110 -58.5t83 -95.5t49.5 -128.5h-180q-24 67 -74.5 101.5t-118.5 34.5q-46 0 -84 -15.5t-66.5 -46
t-44.5 -79.5t-16 -112q0 -125 58 -189t153 -64q65 0 114.5 31t75.5 95h-145v119z" />
    <glyph glyph-name="H" unicode="H" horiz-adv-x="793" 
d="M226 809v-306h341v306h180v-809h-180v342h-341v-342h-180v809h180z" />
    <glyph glyph-name="H" unicode="h" horiz-adv-x="793" 
d="M226 809v-306h341v306h180v-809h-180v342h-341v-342h-180v809h180z" />
    <glyph glyph-name="I" unicode="I" horiz-adv-x="259" 
d="M213 809v-809h-167v809h167z" />
    <glyph glyph-name="I" unicode="&#xef;" horiz-adv-x="259" 
d="M213 809v-809h-167v809h167z" />
    <glyph glyph-name="I" unicode="&#xee;" horiz-adv-x="259" 
d="M213 809v-809h-167v809h167z" />
    <glyph glyph-name="I" unicode="&#xec;" horiz-adv-x="259" 
d="M213 809v-809h-167v809h167z" />
    <glyph glyph-name="I" unicode="&#xcf;" horiz-adv-x="259" 
d="M213 809v-809h-167v809h167z" />
    <glyph glyph-name="I" unicode="&#xce;" horiz-adv-x="259" 
d="M213 809v-809h-167v809h167z" />
    <glyph glyph-name="I" unicode="&#xcc;" horiz-adv-x="259" 
d="M213 809v-809h-167v809h167z" />
    <glyph glyph-name="I" unicode="i" horiz-adv-x="259" 
d="M213 809v-809h-167v809h167z" />
    <glyph glyph-name="J" unicode="J" horiz-adv-x="618" 
d="M290 157q69 0 92.5 35.5t23.5 138.5v478h172v-476q0 -49 -2.5 -85.5t-9.5 -74.5t-20 -65t-34.5 -51.5t-51.5 -39.5t-73 -23.5t-97 -8.5t-97 10.5t-73 27t-51.5 43.5t-34 55t-20 66t-9.5 71.5t-2 76.5h170v-2q0 -106 22 -141t95 -35z" />
    <glyph glyph-name="J" unicode="j" horiz-adv-x="618" 
d="M290 157q69 0 92.5 35.5t23.5 138.5v478h172v-476q0 -49 -2.5 -85.5t-9.5 -74.5t-20 -65t-34.5 -51.5t-51.5 -39.5t-73 -23.5t-97 -8.5t-97 10.5t-73 27t-51.5 43.5t-34 55t-20 66t-9.5 71.5t-2 76.5h170v-2q0 -106 22 -141t95 -35z" />
    <glyph glyph-name="K" unicode="K" horiz-adv-x="748" 
d="M419 480l339 -480h-199l-255 355l-88 -96v-259h-170v810h170v-336l309 336h197z" />
    <glyph glyph-name="K" unicode="k" horiz-adv-x="748" 
d="M419 480l339 -480h-199l-255 355l-88 -96v-259h-170v810h170v-336l309 336h197z" />
    <glyph glyph-name="L" unicode="L" horiz-adv-x="617" 
d="M226 162h395v-162h-575v810h180v-648z" />
    <glyph glyph-name="L" unicode="l" horiz-adv-x="617" 
d="M226 162h395v-162h-575v810h180v-648z" />
    <glyph glyph-name="M" unicode="M" horiz-adv-x="929" 
d="M695 809h188v-809h-171v464l-180 -464h-135l-181 464v-464h-170v809h188l230 -636z" />
    <glyph glyph-name="M" unicode="m" horiz-adv-x="929" 
d="M695 809h188v-809h-171v464l-180 -464h-135l-181 464v-464h-170v809h188l230 -636z" />
    <glyph glyph-name="N" unicode="N" horiz-adv-x="821" 
d="M608 809h167v-809h-167l-392 551l-5 -551h-165v809h165l397 -546v546z" />
    <glyph glyph-name="N" unicode="&#xf1;" horiz-adv-x="821" 
d="M608 809h167v-809h-167l-392 551l-5 -551h-165v809h165l397 -546v546z" />
    <glyph glyph-name="N" unicode="&#xd1;" horiz-adv-x="821" 
d="M608 809h167v-809h-167l-392 551l-5 -551h-165v809h165l397 -546v546z" />
    <glyph glyph-name="N" unicode="n" horiz-adv-x="821" 
d="M608 809h167v-809h-167l-392 551l-5 -551h-165v809h165l397 -546v546z" />
    <glyph glyph-name="O" unicode="O" horiz-adv-x="808" 
d="M404 826q83 0 153.5 -28.5t122 -82t80.5 -133t29 -176.5q0 -102 -30 -183t-83 -132.5t-122.5 -78.5t-149.5 -27q-64 0 -121.5 17t-106 52t-83.5 84.5t-55 118t-20 149.5q0 98 30.5 179t83 133t122.5 80t150 28zM404 153q95 0 153 63.5t58 189.5q0 63 -16 112t-45 79.5
t-67 46t-83.5 15.5t-83.5 -15.5t-66.5 -46t-44.5 -79.5t-16 -112q0 -125 58 -189t153 -64z" />
    <glyph glyph-name="O" unicode="&#xf8;" horiz-adv-x="808" 
d="M404 826q83 0 153.5 -28.5t122 -82t80.5 -133t29 -176.5q0 -102 -30 -183t-83 -132.5t-122.5 -78.5t-149.5 -27q-64 0 -121.5 17t-106 52t-83.5 84.5t-55 118t-20 149.5q0 98 30.5 179t83 133t122.5 80t150 28zM404 153q95 0 153 63.5t58 189.5q0 63 -16 112t-45 79.5
t-67 46t-83.5 15.5t-83.5 -15.5t-66.5 -46t-44.5 -79.5t-16 -112q0 -125 58 -189t153 -64z" />
    <glyph glyph-name="O" unicode="&#xf5;" horiz-adv-x="808" 
d="M404 826q83 0 153.5 -28.5t122 -82t80.5 -133t29 -176.5q0 -102 -30 -183t-83 -132.5t-122.5 -78.5t-149.5 -27q-64 0 -121.5 17t-106 52t-83.5 84.5t-55 118t-20 149.5q0 98 30.5 179t83 133t122.5 80t150 28zM404 153q95 0 153 63.5t58 189.5q0 63 -16 112t-45 79.5
t-67 46t-83.5 15.5t-83.5 -15.5t-66.5 -46t-44.5 -79.5t-16 -112q0 -125 58 -189t153 -64z" />
    <glyph glyph-name="O" unicode="&#xf4;" horiz-adv-x="808" 
d="M404 826q83 0 153.5 -28.5t122 -82t80.5 -133t29 -176.5q0 -102 -30 -183t-83 -132.5t-122.5 -78.5t-149.5 -27q-64 0 -121.5 17t-106 52t-83.5 84.5t-55 118t-20 149.5q0 98 30.5 179t83 133t122.5 80t150 28zM404 153q95 0 153 63.5t58 189.5q0 63 -16 112t-45 79.5
t-67 46t-83.5 15.5t-83.5 -15.5t-66.5 -46t-44.5 -79.5t-16 -112q0 -125 58 -189t153 -64z" />
    <glyph glyph-name="O" unicode="&#xf2;" horiz-adv-x="808" 
d="M404 826q83 0 153.5 -28.5t122 -82t80.5 -133t29 -176.5q0 -102 -30 -183t-83 -132.5t-122.5 -78.5t-149.5 -27q-64 0 -121.5 17t-106 52t-83.5 84.5t-55 118t-20 149.5q0 98 30.5 179t83 133t122.5 80t150 28zM404 153q95 0 153 63.5t58 189.5q0 63 -16 112t-45 79.5
t-67 46t-83.5 15.5t-83.5 -15.5t-66.5 -46t-44.5 -79.5t-16 -112q0 -125 58 -189t153 -64z" />
    <glyph glyph-name="O" unicode="&#xd8;" horiz-adv-x="808" 
d="M404 826q83 0 153.5 -28.5t122 -82t80.5 -133t29 -176.5q0 -102 -30 -183t-83 -132.5t-122.5 -78.5t-149.5 -27q-64 0 -121.5 17t-106 52t-83.5 84.5t-55 118t-20 149.5q0 98 30.5 179t83 133t122.5 80t150 28zM404 153q95 0 153 63.5t58 189.5q0 63 -16 112t-45 79.5
t-67 46t-83.5 15.5t-83.5 -15.5t-66.5 -46t-44.5 -79.5t-16 -112q0 -125 58 -189t153 -64z" />
    <glyph glyph-name="O" unicode="&#xd5;" horiz-adv-x="808" 
d="M404 826q83 0 153.5 -28.5t122 -82t80.5 -133t29 -176.5q0 -102 -30 -183t-83 -132.5t-122.5 -78.5t-149.5 -27q-64 0 -121.5 17t-106 52t-83.5 84.5t-55 118t-20 149.5q0 98 30.5 179t83 133t122.5 80t150 28zM404 153q95 0 153 63.5t58 189.5q0 63 -16 112t-45 79.5
t-67 46t-83.5 15.5t-83.5 -15.5t-66.5 -46t-44.5 -79.5t-16 -112q0 -125 58 -189t153 -64z" />
    <glyph glyph-name="O" unicode="&#xd4;" horiz-adv-x="808" 
d="M404 826q83 0 153.5 -28.5t122 -82t80.5 -133t29 -176.5q0 -102 -30 -183t-83 -132.5t-122.5 -78.5t-149.5 -27q-64 0 -121.5 17t-106 52t-83.5 84.5t-55 118t-20 149.5q0 98 30.5 179t83 133t122.5 80t150 28zM404 153q95 0 153 63.5t58 189.5q0 63 -16 112t-45 79.5
t-67 46t-83.5 15.5t-83.5 -15.5t-66.5 -46t-44.5 -79.5t-16 -112q0 -125 58 -189t153 -64z" />
    <glyph glyph-name="O" unicode="&#xd2;" horiz-adv-x="808" 
d="M404 826q83 0 153.5 -28.5t122 -82t80.5 -133t29 -176.5q0 -102 -30 -183t-83 -132.5t-122.5 -78.5t-149.5 -27q-64 0 -121.5 17t-106 52t-83.5 84.5t-55 118t-20 149.5q0 98 30.5 179t83 133t122.5 80t150 28zM404 153q95 0 153 63.5t58 189.5q0 63 -16 112t-45 79.5
t-67 46t-83.5 15.5t-83.5 -15.5t-66.5 -46t-44.5 -79.5t-16 -112q0 -125 58 -189t153 -64z" />
    <glyph glyph-name="O" unicode="o" horiz-adv-x="808" 
d="M404 826q83 0 153.5 -28.5t122 -82t80.5 -133t29 -176.5q0 -102 -30 -183t-83 -132.5t-122.5 -78.5t-149.5 -27q-64 0 -121.5 17t-106 52t-83.5 84.5t-55 118t-20 149.5q0 98 30.5 179t83 133t122.5 80t150 28zM404 153q95 0 153 63.5t58 189.5q0 63 -16 112t-45 79.5
t-67 46t-83.5 15.5t-83.5 -15.5t-66.5 -46t-44.5 -79.5t-16 -112q0 -125 58 -189t153 -64z" />
    <glyph glyph-name="P" unicode="P" horiz-adv-x="675" 
d="M46 809l339 1q64 0 118.5 -22t90 -58.5t55.5 -83.5t20 -97q0 -51 -20 -97.5t-55.5 -82t-90 -56.5t-118.5 -21h-3h-3h-3h-3h-4h-3h-3h-3h-3h-4h-3h-3h-3h-3h-4h-3h-3h-3h-4h-3h-3h-3h-3h-4h-3h-3h-3h-4h-3h-3h-3h-4h-3h-3h-3h-4h-3h-3h-3h-4h-3h-3h-3h-4h-3h-3h-4h-7v-292
h-180v809zM399 449q31 0 56.5 11.5t41 35t15.5 53.5q0 46 -32.5 75t-80.5 29h-173v-204h173z" />
    <glyph glyph-name="P" unicode="p" horiz-adv-x="675" 
d="M46 809l339 1q64 0 118.5 -22t90 -58.5t55.5 -83.5t20 -97q0 -51 -20 -97.5t-55.5 -82t-90 -56.5t-118.5 -21h-3h-3h-3h-3h-4h-3h-3h-3h-3h-4h-3h-3h-3h-3h-4h-3h-3h-3h-4h-3h-3h-3h-3h-4h-3h-3h-3h-4h-3h-3h-3h-4h-3h-3h-3h-4h-3h-3h-3h-4h-3h-3h-3h-4h-3h-3h-4h-7v-292
h-180v809zM399 449q31 0 56.5 11.5t41 35t15.5 53.5q0 46 -32.5 75t-80.5 29h-173v-204h173z" />
    <glyph glyph-name="Q" unicode="Q" horiz-adv-x="812" 
d="M789 406q0 -182 -96 -295l73 -82l-121 -107l-83 94q-73 -31 -158 -31q-80 0 -149.5 27.5t-122.5 79t-83.5 132.5t-30.5 182q0 99 30.5 179.5t83 132.5t122.5 80.5t150 28.5q83 0 153.5 -29t122 -82t80.5 -133t29 -177zM404 153q16 0 35 2l-78 88l121 107l94 -107
q39 64 39 163q0 125 -58.5 189t-152.5 64q-95 0 -153 -64.5t-58 -188.5q0 -125 58 -189t153 -64z" />
    <glyph glyph-name="Q" unicode="q" horiz-adv-x="812" 
d="M789 406q0 -182 -96 -295l73 -82l-121 -107l-83 94q-73 -31 -158 -31q-80 0 -149.5 27.5t-122.5 79t-83.5 132.5t-30.5 182q0 99 30.5 179.5t83 132.5t122.5 80.5t150 28.5q83 0 153.5 -29t122 -82t80.5 -133t29 -177zM404 153q16 0 35 2l-78 88l121 107l94 -107
q39 64 39 163q0 125 -58.5 189t-152.5 64q-95 0 -153 -64.5t-58 -188.5q0 -125 58 -189t153 -64z" />
    <glyph glyph-name="R" unicode="R" horiz-adv-x="744" 
d="M548 310l191 -310h-205l-160 292h-148v-292h-180v809l374 1q65 0 119 -22t90 -58.5t55.5 -83.5t19.5 -97q0 -52 -18.5 -100t-54.5 -85t-83 -54zM226 449h209q48 0 80 27t32 73t-32.5 75t-79.5 29h-209v-204z" />
    <glyph glyph-name="R" unicode="r" horiz-adv-x="744" 
d="M548 310l191 -310h-205l-160 292h-148v-292h-180v809l374 1q65 0 119 -22t90 -58.5t55.5 -83.5t19.5 -97q0 -52 -18.5 -100t-54.5 -85t-83 -54zM226 449h209q48 0 80 27t32 73t-32.5 75t-79.5 29h-209v-204z" />
    <glyph glyph-name="S" unicode="S" horiz-adv-x="711" 
d="M397 485q29 -7 44.5 -10.5t44.5 -11.5t45 -14.5t40.5 -17.5t39 -22t31 -27t25.5 -34t15.5 -41t6.5 -50q0 -123 -92 -197.5t-263 -74.5q-142 0 -228.5 73.5t-86.5 185.5v15h193v-15q0 -49 43 -71.5t106 -22.5q29 0 53 4.5t45 14.5t33 29t12 46q0 14 -6 26t-20.5 22t-28 17
t-39.5 14.5t-42.5 12t-48.5 12.5q-29 6 -44 10t-43 12t-44.5 14.5t-40.5 17t-38 21.5t-30.5 26.5t-25 32t-15 38.5t-6.5 46q0 118 91 188.5t242 70.5q140 0 228.5 -72t88.5 -187v-15h-178v15q0 44 -47.5 71t-109.5 27q-28 0 -56 -8t-50 -27.5t-22 -47.5q0 -14 6 -25
t20 -20.5t26.5 -16t37.5 -13.5t41 -10.5t47 -10.5z" />
    <glyph glyph-name="S" unicode="s" horiz-adv-x="711" 
d="M397 485q29 -7 44.5 -10.5t44.5 -11.5t45 -14.5t40.5 -17.5t39 -22t31 -27t25.5 -34t15.5 -41t6.5 -50q0 -123 -92 -197.5t-263 -74.5q-142 0 -228.5 73.5t-86.5 185.5v15h193v-15q0 -49 43 -71.5t106 -22.5q29 0 53 4.5t45 14.5t33 29t12 46q0 14 -6 26t-20.5 22t-28 17
t-39.5 14.5t-42.5 12t-48.5 12.5q-29 6 -44 10t-43 12t-44.5 14.5t-40.5 17t-38 21.5t-30.5 26.5t-25 32t-15 38.5t-6.5 46q0 118 91 188.5t242 70.5q140 0 228.5 -72t88.5 -187v-15h-178v15q0 44 -47.5 71t-109.5 27q-28 0 -56 -8t-50 -27.5t-22 -47.5q0 -14 6 -25
t20 -20.5t26.5 -16t37.5 -13.5t41 -10.5t47 -10.5z" />
    <glyph glyph-name="T" unicode="T" horiz-adv-x="759" 
d="M7 809h744v-161h-282v-648h-180v648h-282v161z" />
    <glyph glyph-name="T" unicode="t" horiz-adv-x="759" 
d="M7 809h744v-161h-282v-648h-180v648h-282v161z" />
    <glyph glyph-name="U" unicode="U" horiz-adv-x="741" 
d="M544 810h159v-499q0 -69 -19.5 -127t-59 -103t-104.5 -70.5t-150 -25.5q-84 0 -149 25.5t-104.5 70.5t-59.5 103t-20 127v499h159v-497v-6q0 -46 15.5 -79t42 -50.5t55 -25.5t61 -8t61.5 8t55.5 25.5t42 50.5t15.5 79v6v497z" />
    <glyph glyph-name="U" unicode="&#xfb;" horiz-adv-x="741" 
d="M544 810h159v-499q0 -69 -19.5 -127t-59 -103t-104.5 -70.5t-150 -25.5q-84 0 -149 25.5t-104.5 70.5t-59.5 103t-20 127v499h159v-497v-6q0 -46 15.5 -79t42 -50.5t55 -25.5t61 -8t61.5 8t55.5 25.5t42 50.5t15.5 79v6v497z" />
    <glyph glyph-name="U" unicode="&#xf9;" horiz-adv-x="741" 
d="M544 810h159v-499q0 -69 -19.5 -127t-59 -103t-104.5 -70.5t-150 -25.5q-84 0 -149 25.5t-104.5 70.5t-59.5 103t-20 127v499h159v-497v-6q0 -46 15.5 -79t42 -50.5t55 -25.5t61 -8t61.5 8t55.5 25.5t42 50.5t15.5 79v6v497z" />
    <glyph glyph-name="U" unicode="&#xdb;" horiz-adv-x="741" 
d="M544 810h159v-499q0 -69 -19.5 -127t-59 -103t-104.5 -70.5t-150 -25.5q-84 0 -149 25.5t-104.5 70.5t-59.5 103t-20 127v499h159v-497v-6q0 -46 15.5 -79t42 -50.5t55 -25.5t61 -8t61.5 8t55.5 25.5t42 50.5t15.5 79v6v497z" />
    <glyph glyph-name="U" unicode="&#xd9;" horiz-adv-x="741" 
d="M544 810h159v-499q0 -69 -19.5 -127t-59 -103t-104.5 -70.5t-150 -25.5q-84 0 -149 25.5t-104.5 70.5t-59.5 103t-20 127v499h159v-497v-6q0 -46 15.5 -79t42 -50.5t55 -25.5t61 -8t61.5 8t55.5 25.5t42 50.5t15.5 79v6v497z" />
    <glyph glyph-name="U" unicode="u" horiz-adv-x="741" 
d="M544 810h159v-499q0 -69 -19.5 -127t-59 -103t-104.5 -70.5t-150 -25.5q-84 0 -149 25.5t-104.5 70.5t-59.5 103t-20 127v499h159v-497v-6q0 -46 15.5 -79t42 -50.5t55 -25.5t61 -8t61.5 8t55.5 25.5t42 50.5t15.5 79v6v497z" />
    <glyph glyph-name="V" unicode="V" horiz-adv-x="712" 
d="M452 0h-193l-267 809h170l193 -584l194 585h171z" />
    <glyph glyph-name="V" unicode="v" horiz-adv-x="712" 
d="M452 0h-193l-267 809h170l193 -584l194 585h171z" />
    <glyph glyph-name="W" unicode="W" horiz-adv-x="1131" 
d="M967 810h171l-250 -810h-193l-146 513l-147 -513h-193l-249 810h170l175 -585l159 585h170l157 -585z" />
    <glyph glyph-name="W" unicode="w" horiz-adv-x="1131" 
d="M967 810h171l-250 -810h-193l-146 513l-147 -513h-193l-249 810h170l175 -585l159 585h170l157 -585z" />
    <glyph glyph-name="X" unicode="X" horiz-adv-x="772" 
d="M779 810l-281 -405l281 -405h-224l-169 244l-169 -244h-224l281 405l-281 405h224l169 -244l169 244h224z" />
    <glyph glyph-name="X" unicode="x" horiz-adv-x="772" 
d="M779 810l-281 -405l281 -405h-224l-169 244l-169 -244h-224l281 405l-281 405h224l169 -244l169 244h224z" />
    <glyph glyph-name="Y" unicode="Y" horiz-adv-x="694" 
d="M503 809h206l-277 -485v-324h-170v324l-277 485h206l155 -316z" />
    <glyph glyph-name="Y" unicode="&#x178;" horiz-adv-x="694" 
d="M503 809h206l-277 -485v-324h-170v324l-277 485h206l155 -316z" />
    <glyph glyph-name="Y" unicode="&#xff;" horiz-adv-x="694" 
d="M503 809h206l-277 -485v-324h-170v324l-277 485h206l155 -316z" />
    <glyph glyph-name="Y" unicode="&#xfd;" horiz-adv-x="694" 
d="M503 809h206l-277 -485v-324h-170v324l-277 485h206l155 -316z" />
    <glyph glyph-name="Y" unicode="&#xdd;" horiz-adv-x="694" 
d="M503 809h206l-277 -485v-324h-170v324l-277 485h206l155 -316z" />
    <glyph glyph-name="Y" unicode="y" horiz-adv-x="694" 
d="M503 809h206l-277 -485v-324h-170v324l-277 485h206l155 -316z" />
    <glyph glyph-name="Z" unicode="Z" horiz-adv-x="717" 
d="M699 648l-471 -486h471v-162h-682v162l466 486h-466v161h682v-161z" />
    <glyph glyph-name="Z" unicode="z" horiz-adv-x="717" 
d="M699 648l-471 -486h471v-162h-682v162l466 486h-466v161h682v-161z" />
    <glyph glyph-name="bracketleft" unicode="[" horiz-adv-x="405" 
d="M405 -162h-405v1135h405v-134h-243v-867h243v-134z" />
    <glyph glyph-name="backslash" unicode="\" horiz-adv-x="682" 
d="M59 810h171l393 -810h-172z" />
    <glyph glyph-name="bracketright" unicode="]" horiz-adv-x="452" 
d="M1 973h405v-1135h-405v134h243v867h-243v134z" />
    <glyph glyph-name="underscore" unicode="_" horiz-adv-x="597" 
d="M581 0h-565v97h565v-97z" />
    <glyph glyph-name="nonbreakingspace" unicode="&#xa0;" horiz-adv-x="344" 
 />
    <glyph glyph-name="sterling" unicode="&#xa3;" horiz-adv-x="673" 
d="M627 551h-177v15q0 47 -32.5 77t-89.5 30q-38 0 -65.5 -27t-27.5 -65q0 -15 11.5 -31t26 -28.5t32.5 -31.5t28 -37h125v-116h-122q-10 -23 -31 -47t-38.5 -40.5t-31.5 -39.5t-14 -48h369v-162h-544q0 68 8 122t17.5 85.5t27.5 59t28.5 38t28.5 26.5q5 4 7 6h-104v116h100
q-2 3 -13.5 15t-15.5 17l-14 17.5t-14.5 20t-11.5 20.5t-10.5 23.5t-6 24.5t-2.5 28q0 36 15 70.5t46 66t86.5 50.5t127.5 19q136 0 208.5 -70.5t72.5 -188.5v-15z" />
    <glyph glyph-name="yen" unicode="&#xa5;" horiz-adv-x="786" 
d="M772 416h-241l-53 -92h184v-80h-184v-244h-170v244h-184v80h184l-53 92h-242v79h197l-179 314h206l155 -317l157 317h206l-179 -314h196v-79z" />
    <glyph glyph-name="softhyphen" unicode="&#xad;" 
 />
    <glyph glyph-name="Aacute" unicode="&#xc1;" horiz-adv-x="856" 
d="M531 809l279 -809h-170l-63 167h-298l-63 -167h-170l297 809h188zM335 316h186l-93 247zM627 1039l-117 -163h-137l118 163h136z" />
    <glyph glyph-name="Aacute" unicode="&#xe1;" horiz-adv-x="856" 
d="M531 809l279 -809h-170l-63 167h-298l-63 -167h-170l297 809h188zM335 316h186l-93 247zM627 1039l-117 -163h-137l118 163h136z" />
    <glyph glyph-name="Adieresis" unicode="&#xc4;" horiz-adv-x="856" 
d="M531 809l279 -809h-170l-63 167h-298l-63 -167h-170l297 809h188zM335 316h186l-93 247zM384 877h-143v143h143v-143zM616 877h-143v143h143v-143z" />
    <glyph glyph-name="Adieresis" unicode="&#xe4;" horiz-adv-x="856" 
d="M531 809l279 -809h-170l-63 167h-298l-63 -167h-170l297 809h188zM335 316h186l-93 247zM384 877h-143v143h143v-143zM616 877h-143v143h143v-143z" />
    <glyph glyph-name="Eacute" unicode="&#xc9;" horiz-adv-x="671" 
d="M625 647h-404v-144l336 -1v-162l-336 2v-180h404v-162h-579v809h579v-162zM494 1040l-118 -163h-136l117 163h137z" />
    <glyph glyph-name="Eacute" unicode="&#xe9;" horiz-adv-x="671" 
d="M625 647h-404v-144l336 -1v-162l-336 2v-180h404v-162h-579v809h579v-162zM494 1040l-118 -163h-136l117 163h137z" />
    <glyph glyph-name="Iacute" unicode="&#xcd;" horiz-adv-x="362" 
d="M210 0h-164v809h164v-809zM316 1023l-118 -163h-136l118 163h136z" />
    <glyph glyph-name="Iacute" unicode="&#xed;" horiz-adv-x="362" 
d="M210 0h-164v809h164v-809zM316 1023l-118 -163h-136l118 163h136z" />
    <glyph glyph-name="Oacute" unicode="&#xd3;" horiz-adv-x="808" 
d="M575 1041l-118 -163h-136l118 163h136zM404 826q83 0 153.5 -28.5t122 -82t80.5 -133t29 -176.5q0 -102 -30 -183t-83 -132.5t-122.5 -78.5t-149.5 -27q-64 0 -121.5 17t-106 52t-83.5 84.5t-55 118t-20 149.5q0 98 30.5 179t83 133t122.5 80t150 28zM404 153
q36 0 68 9.5t58.5 29.5t45 49.5t29 71.5t10.5 93q0 125 -58.5 189t-152.5 64q-46 0 -84 -15.5t-66.5 -46t-44.5 -79.5t-16 -112q0 -125 58 -189t153 -64z" />
    <glyph glyph-name="Oacute" unicode="&#xf3;" horiz-adv-x="808" 
d="M575 1041l-118 -163h-136l118 163h136zM404 826q83 0 153.5 -28.5t122 -82t80.5 -133t29 -176.5q0 -102 -30 -183t-83 -132.5t-122.5 -78.5t-149.5 -27q-64 0 -121.5 17t-106 52t-83.5 84.5t-55 118t-20 149.5q0 98 30.5 179t83 133t122.5 80t150 28zM404 153
q36 0 68 9.5t58.5 29.5t45 49.5t29 71.5t10.5 93q0 125 -58.5 189t-152.5 64q-46 0 -84 -15.5t-66.5 -46t-44.5 -79.5t-16 -112q0 -125 58 -189t153 -64z" />
    <glyph glyph-name="Odieresis" unicode="&#xd6;" horiz-adv-x="863" 
d="M432 826q83 0 153.5 -28.5t122 -82t80.5 -133t29 -176.5q0 -102 -30 -183t-83 -132.5t-122.5 -78.5t-149.5 -27t-149.5 27.5t-122.5 79t-83.5 132.5t-30.5 182q0 98 30.5 179t83 133t122.5 80t150 28zM432 153q95 0 153 63.5t58 189.5q0 125 -58.5 189t-152.5 64
q-95 0 -153 -64.5t-58 -188.5q0 -125 58 -189t153 -64zM387 878h-143v143h143v-143zM619 878h-143v143h143v-143z" />
    <glyph glyph-name="Odieresis" unicode="&#xf6;" horiz-adv-x="863" 
d="M432 826q83 0 153.5 -28.5t122 -82t80.5 -133t29 -176.5q0 -102 -30 -183t-83 -132.5t-122.5 -78.5t-149.5 -27t-149.5 27.5t-122.5 79t-83.5 132.5t-30.5 182q0 98 30.5 179t83 133t122.5 80t150 28zM432 153q95 0 153 63.5t58 189.5q0 125 -58.5 189t-152.5 64
q-95 0 -153 -64.5t-58 -188.5q0 -125 58 -189t153 -64zM387 878h-143v143h143v-143zM619 878h-143v143h143v-143z" />
    <glyph glyph-name="Uacute" unicode="&#xda;" horiz-adv-x="758" 
d="M553 810h159v-499q0 -69 -19.5 -127t-59 -103t-104.5 -70.5t-150 -25.5q-84 0 -149 25.5t-104.5 70.5t-59.5 103t-20 127v499h159v-497v-6q0 -46 15.5 -79t42 -50.5t55 -25.5t61 -8t61.5 8t55.5 25.5t42 50.5t15.5 79v6v497zM544 1049l-118 -163h-136l118 163h136z" />
    <glyph glyph-name="Uacute" unicode="&#xfa;" horiz-adv-x="758" 
d="M553 810h159v-499q0 -69 -19.5 -127t-59 -103t-104.5 -70.5t-150 -25.5q-84 0 -149 25.5t-104.5 70.5t-59.5 103t-20 127v499h159v-497v-6q0 -46 15.5 -79t42 -50.5t55 -25.5t61 -8t61.5 8t55.5 25.5t42 50.5t15.5 79v6v497zM544 1049l-118 -163h-136l118 163h136z" />
    <glyph glyph-name="Udieresis" unicode="&#xdc;" horiz-adv-x="758" 
d="M553 810h159v-499q0 -69 -19.5 -127t-59 -103t-104.5 -70.5t-150 -25.5q-84 0 -149 25.5t-104.5 70.5t-59.5 103t-20 127v499h159v-497v-6q0 -46 15.5 -79t42 -50.5t55 -25.5t61 -8t61.5 8t55.5 25.5t42 50.5t15.5 79v6v497zM334 884h-142v143h142v-143zM566 884h-143
v143h143v-143z" />
    <glyph glyph-name="Udieresis" unicode="&#xfc;" horiz-adv-x="758" 
d="M553 810h159v-499q0 -69 -19.5 -127t-59 -103t-104.5 -70.5t-150 -25.5q-84 0 -149 25.5t-104.5 70.5t-59.5 103t-20 127v499h159v-497v-6q0 -46 15.5 -79t42 -50.5t55 -25.5t61 -8t61.5 8t55.5 25.5t42 50.5t15.5 79v6v497zM334 884h-142v143h142v-143zM566 884h-143
v143h143v-143z" />
    <glyph glyph-name="Aogonek" unicode="&#x104;" horiz-adv-x="749" 
d="M621 -71q0 -15 10.5 -24.5t28 -11.5t34 -2t36 3t27.5 4.5t13 2.5v-85q-5 -1 -13.5 -3t-33.5 -4t-47.5 -2t-49.5 5.5t-47 17t-33.5 34.5t-13.5 55q0 61 46 105l-54 143h-298l-63 -167h-170l297 809h188l279 -809h-10q-16 -1 -32.5 -3.5t-40 -9t-38.5 -22t-15 -36.5z
M282 316h186l-93 246z" />
    <glyph glyph-name="Aogonek" unicode="&#x105;" horiz-adv-x="749" 
d="M621 -71q0 -15 10.5 -24.5t28 -11.5t34 -2t36 3t27.5 4.5t13 2.5v-85q-5 -1 -13.5 -3t-33.5 -4t-47.5 -2t-49.5 5.5t-47 17t-33.5 34.5t-13.5 55q0 61 46 105l-54 143h-298l-63 -167h-170l297 809h188l279 -809h-10q-16 -1 -32.5 -3.5t-40 -9t-38.5 -22t-15 -36.5z
M282 316h186l-93 246z" />
    <glyph glyph-name="Cacute" unicode="&#x106;" horiz-adv-x="792" 
d="M565 1041l-118 -163h-136l118 163h136zM601 326h183q-15 -109 -70 -187.5t-134.5 -116t-175.5 -37.5q-80 0 -149.5 27.5t-122.5 79t-83.5 132.5t-30.5 182q0 98 30.5 179t83 133t122.5 80t150 28q95 0 173.5 -37t131.5 -109t71 -172h-186q-16 74 -67 112.5t-123 38.5
q-95 0 -153 -64.5t-58 -188.5q0 -125 58 -189t153 -64q51 0 92.5 18t70 58t34.5 97z" />
    <glyph glyph-name="Cacute" unicode="&#x107;" horiz-adv-x="792" 
d="M565 1041l-118 -163h-136l118 163h136zM601 326h183q-15 -109 -70 -187.5t-134.5 -116t-175.5 -37.5q-80 0 -149.5 27.5t-122.5 79t-83.5 132.5t-30.5 182q0 98 30.5 179t83 133t122.5 80t150 28q95 0 173.5 -37t131.5 -109t71 -172h-186q-16 74 -67 112.5t-123 38.5
q-95 0 -153 -64.5t-58 -188.5q0 -125 58 -189t153 -64q51 0 92.5 18t70 58t34.5 97z" />
    <glyph glyph-name="Ccaron" unicode="&#x10c;" horiz-adv-x="858" 
d="M629 326h183q-15 -109 -70 -187.5t-134.5 -116t-175.5 -37.5q-80 0 -149.5 27.5t-122.5 79t-83.5 132.5t-30.5 182q0 98 30.5 179t83 133t122.5 80t150 28q145 0 247 -84t129 -234h-186q-16 74 -67 112.5t-123 38.5q-95 0 -153 -64.5t-58 -188.5q0 -64 15.5 -113
t44.5 -79.5t67 -45.5t84 -15q79 0 133.5 44t63.5 129zM526 878h-188l-100 163h129l65 -107l65 107h129z" />
    <glyph glyph-name="Ccaron" unicode="&#x10d;" horiz-adv-x="858" 
d="M629 326h183q-15 -109 -70 -187.5t-134.5 -116t-175.5 -37.5q-80 0 -149.5 27.5t-122.5 79t-83.5 132.5t-30.5 182q0 98 30.5 179t83 133t122.5 80t150 28q145 0 247 -84t129 -234h-186q-16 74 -67 112.5t-123 38.5q-95 0 -153 -64.5t-58 -188.5q0 -64 15.5 -113
t44.5 -79.5t67 -45.5t84 -15q79 0 133.5 44t63.5 129zM526 878h-188l-100 163h129l65 -107l65 107h129z" />
    <glyph glyph-name="Eogonek" unicode="&#x118;" horiz-adv-x="686" 
d="M491 -71q0 -15 10 -24.5t27.5 -11.5t34 -2t36 3t27.5 4.5t13 2.5h1v-85q-5 -1 -14 -3t-33.5 -4t-47 -2t-50 5.5t-47 17t-33 34.5t-13.5 55q0 45 26 81h-382v809h579v-162h-404v-144l336 -1v-162l-336 1v-179h404v-162h-2q-13 0 -28.5 -2t-42.5 -8t-44 -22t-17 -39z" />
    <glyph glyph-name="Eogonek" unicode="&#x119;" horiz-adv-x="686" 
d="M491 -71q0 -15 10 -24.5t27.5 -11.5t34 -2t36 3t27.5 4.5t13 2.5h1v-85q-5 -1 -14 -3t-33.5 -4t-47 -2t-50 5.5t-47 17t-33 34.5t-13.5 55q0 45 26 81h-382v809h579v-162h-404v-144l336 -1v-162l-336 1v-179h404v-162h-2q-13 0 -28.5 -2t-42.5 -8t-44 -22t-17 -39z" />
    <glyph glyph-name="Lslash" unicode="&#x141;" horiz-adv-x="694" 
d="M303 162h394v-162h-574v321l-118 -51v149l118 51v339h180v-260l212 94v-149l-212 -94v-238z" />
    <glyph glyph-name="Lslash" unicode="&#x142;" horiz-adv-x="694" 
d="M303 162h394v-162h-574v321l-118 -51v149l118 51v339h180v-260l212 94v-149l-212 -94v-238z" />
    <glyph glyph-name="Nacute" unicode="&#x143;" horiz-adv-x="825" 
d="M608 809h171v-809h-171l-392 533v-533h-170v809h170l392 -528v528zM600 1075l-141 -195h-136l141 195h136z" />
    <glyph glyph-name="Nacute" unicode="&#x144;" horiz-adv-x="825" 
d="M608 809h171v-809h-171l-392 533v-533h-170v809h170l392 -528v528zM600 1075l-141 -195h-136l141 195h136z" />
    <glyph glyph-name="Sacute" unicode="&#x15a;" horiz-adv-x="711" 
d="M397 485q29 -7 44.5 -10.5t44.5 -11.5t45 -14.5t40.5 -17.5t39 -22t31 -27t25.5 -34t15.5 -41t6.5 -50q0 -123 -92 -197.5t-263 -74.5q-142 0 -228.5 73.5t-86.5 185.5v15h193v-15q0 -49 43 -71.5t106 -22.5q29 0 53 4.5t45 14.5t33 29t12 46q0 14 -6 26t-20.5 22t-28 17
t-39.5 14.5t-42.5 12t-48.5 12.5q-29 6 -44 10t-43 12t-44.5 14.5t-40.5 17t-38 21.5t-30.5 26.5t-25 32t-15 38.5t-6.5 46q0 118 91 188.5t242 70.5q140 0 228.5 -72t88.5 -187v-15h-178v15q0 44 -47.5 71t-109.5 27q-28 0 -56 -8t-50 -27.5t-22 -47.5q0 -14 6 -25
t20 -20.5t26.5 -16t37.5 -13.5t41 -10.5t47 -10.5zM537 1040l-117 -163h-136l117 163h136z" />
    <glyph glyph-name="Sacute" unicode="&#x15b;" horiz-adv-x="711" 
d="M397 485q29 -7 44.5 -10.5t44.5 -11.5t45 -14.5t40.5 -17.5t39 -22t31 -27t25.5 -34t15.5 -41t6.5 -50q0 -123 -92 -197.5t-263 -74.5q-142 0 -228.5 73.5t-86.5 185.5v15h193v-15q0 -49 43 -71.5t106 -22.5q29 0 53 4.5t45 14.5t33 29t12 46q0 14 -6 26t-20.5 22t-28 17
t-39.5 14.5t-42.5 12t-48.5 12.5q-29 6 -44 10t-43 12t-44.5 14.5t-40.5 17t-38 21.5t-30.5 26.5t-25 32t-15 38.5t-6.5 46q0 118 91 188.5t242 70.5q140 0 228.5 -72t88.5 -187v-15h-178v15q0 44 -47.5 71t-109.5 27q-28 0 -56 -8t-50 -27.5t-22 -47.5q0 -14 6 -25
t20 -20.5t26.5 -16t37.5 -13.5t41 -10.5t47 -10.5zM537 1040l-117 -163h-136l117 163h136z" />
    <glyph glyph-name="Scaron" unicode="&#x160;" horiz-adv-x="762" 
d="M424 485q29 -7 44.5 -10.5t44.5 -11.5t45 -14.5t40.5 -17.5t39 -22t31 -27t25.5 -34t15.5 -41t6.5 -50q0 -123 -92 -197.5t-263 -74.5q-142 0 -228.5 73.5t-86.5 185.5v15h193v-15q0 -49 43 -71.5t106 -22.5q39 0 69.5 7.5t52 29.5t21.5 57q0 14 -6 26t-20.5 22t-28 17
t-39.5 14.5t-42.5 12t-48.5 12.5q-29 6 -44 10t-43 12t-44.5 14.5t-40.5 17t-38 21.5t-30.5 26.5t-25 32t-15 38.5t-6.5 46q0 59 24 107.5t67 82t105 51.5t137 18q140 0 228.5 -72t88.5 -187v-15h-178v15q0 44 -47.5 71t-109.5 27q-28 0 -56 -8t-50 -27.5t-22 -47.5
q0 -14 6 -25t20 -20.5t26.5 -16t37.5 -13.5t41 -10.5t47 -10.5zM469 878h-188l-100 162h129l65 -106l65 106h129z" />
    <glyph glyph-name="Scaron" unicode="&#x161;" horiz-adv-x="762" 
d="M424 485q29 -7 44.5 -10.5t44.5 -11.5t45 -14.5t40.5 -17.5t39 -22t31 -27t25.5 -34t15.5 -41t6.5 -50q0 -123 -92 -197.5t-263 -74.5q-142 0 -228.5 73.5t-86.5 185.5v15h193v-15q0 -49 43 -71.5t106 -22.5q39 0 69.5 7.5t52 29.5t21.5 57q0 14 -6 26t-20.5 22t-28 17
t-39.5 14.5t-42.5 12t-48.5 12.5q-29 6 -44 10t-43 12t-44.5 14.5t-40.5 17t-38 21.5t-30.5 26.5t-25 32t-15 38.5t-6.5 46q0 59 24 107.5t67 82t105 51.5t137 18q140 0 228.5 -72t88.5 -187v-15h-178v15q0 44 -47.5 71t-109.5 27q-28 0 -56 -8t-50 -27.5t-22 -47.5
q0 -14 6 -25t20 -20.5t26.5 -16t37.5 -13.5t41 -10.5t47 -10.5zM469 878h-188l-100 162h129l65 -106l65 106h129z" />
    <glyph glyph-name="Zacute" unicode="&#x179;" horiz-adv-x="717" 
d="M699 647l-471 -485h471v-162h-682v162l466 485h-466v162h682v-162zM545 1072l-141 -195h-136l141 195h136z" />
    <glyph glyph-name="Zacute" unicode="&#x17a;" horiz-adv-x="717" 
d="M699 647l-471 -485h471v-162h-682v162l466 485h-466v162h682v-162zM545 1072l-141 -195h-136l141 195h136z" />
    <glyph glyph-name="Zdot" unicode="&#x17b;" horiz-adv-x="718" 
d="M699 648l-471 -486h471v-162h-682v162l466 486h-466v161h682v-161zM429 877h-142v142h142v-142z" />
    <glyph glyph-name="Zdot" unicode="&#x17c;" horiz-adv-x="718" 
d="M699 648l-471 -486h471v-162h-682v162l466 486h-466v161h682v-161zM429 877h-142v142h142v-142z" />
    <glyph glyph-name="Zcaron" unicode="&#x17d;" horiz-adv-x="774" 
d="M728 647l-471 -485h471v-162h-682v162l466 485h-466v162h682v-162zM497 877h-188l-100 163h129l65 -107l65 107h129z" />
    <glyph glyph-name="Zcaron" unicode="&#x17e;" horiz-adv-x="774" 
d="M728 647l-471 -485h471v-162h-682v162l466 485h-466v162h682v-162zM497 877h-188l-100 163h129l65 -107l65 107h129z" />
    <glyph glyph-name="Iocyrillic" unicode="&#x401;" horiz-adv-x="641" 
d="M277 877h-143v143h143v-143zM509 877h-143v143h143v-143zM625 648h-404v-145l336 -1v-162l-336 2v-180h404v-162h-579v809h579v-161z" />
    <glyph glyph-name="Iocyrillic" unicode="&#x451;" horiz-adv-x="641" 
d="M277 877h-143v143h143v-143zM509 877h-143v143h143v-143zM625 648h-404v-145l336 -1v-162l-336 2v-180h404v-162h-579v809h579v-161z" />
    <glyph glyph-name="Ecyrillic" unicode="&#x404;" horiz-adv-x="792" 
d="M601 326h178q-15 -109 -70 -187.5t-134.5 -116t-175.5 -37.5q-80 0 -149.5 27.5t-122.5 79t-83.5 132.5t-30.5 182q0 98 30.5 179t83 133t122.5 80t150 28q95 0 173.5 -37t131.5 -109t71 -172h-182q-16 72 -69 111.5t-125 39.5q-77 0 -131 -43.5t-72 -127.5h259v-136
h-264q12 -99 68 -149t140 -50q79 0 134.5 44t67.5 129z" />
    <glyph glyph-name="Ecyrillic" unicode="&#x454;" horiz-adv-x="792" 
d="M601 326h178q-15 -109 -70 -187.5t-134.5 -116t-175.5 -37.5q-80 0 -149.5 27.5t-122.5 79t-83.5 132.5t-30.5 182q0 98 30.5 179t83 133t122.5 80t150 28q95 0 173.5 -37t131.5 -109t71 -172h-182q-16 72 -69 111.5t-125 39.5q-77 0 -131 -43.5t-72 -127.5h259v-136
h-264q12 -99 68 -149t140 -50q79 0 134.5 44t67.5 129z" />
    <glyph glyph-name="Icyrillic" unicode="&#x406;" horiz-adv-x="272" 
d="M226 0h-180v809h180v-809z" />
    <glyph glyph-name="Icyrillic" unicode="&#x456;" horiz-adv-x="272" 
d="M226 0h-180v809h180v-809z" />
    <glyph glyph-name="Yicyrillic" unicode="&#x407;" horiz-adv-x="267" 
d="M211 0h-163v809h163v-809zM85 877h-143v142h143v-142zM317 877h-143v142h143v-142z" />
    <glyph glyph-name="Yicyrillic" unicode="&#x457;" horiz-adv-x="267" 
d="M211 0h-163v809h163v-809zM85 877h-143v142h143v-142zM317 877h-143v142h143v-142z" />
    <glyph glyph-name="Acyrillic" unicode="&#x410;" horiz-adv-x="751" 
d="M587 0l-63 167h-298l-63 -167h-170l297 809h188l279 -809h-170zM282 316h186l-93 247z" />
    <glyph glyph-name="Acyrillic" unicode="&#x430;" horiz-adv-x="751" 
d="M587 0l-63 167h-298l-63 -167h-170l297 809h188l279 -809h-170zM282 316h186l-93 247z" />
    <glyph glyph-name="Becyrillic" unicode="&#x411;" horiz-adv-x="718" 
d="M381 484q88 0 152 -19t100.5 -53.5t53 -77.5t16.5 -96q0 -39 -8 -71t-24.5 -55.5t-37 -41.5t-48 -30t-55 -20t-61.5 -12.5t-63.5 -6t-64.5 -1.5h-295v809h591v-161h-411v-164h155zM534 241v22q0 19 -9.5 36.5t-26 30.5t-41.5 20.5t-54 7.5h-175v-213h175q58 0 94.5 27.5
t36.5 68.5z" />
    <glyph glyph-name="Becyrillic" unicode="&#x431;" horiz-adv-x="718" 
d="M381 484q88 0 152 -19t100.5 -53.5t53 -77.5t16.5 -96q0 -39 -8 -71t-24.5 -55.5t-37 -41.5t-48 -30t-55 -20t-61.5 -12.5t-63.5 -6t-64.5 -1.5h-295v809h591v-161h-411v-164h155zM534 241v22q0 19 -9.5 36.5t-26 30.5t-41.5 20.5t-54 7.5h-175v-213h175q58 0 94.5 27.5
t36.5 68.5z" />
    <glyph glyph-name="Vecyrillic" unicode="&#x412;" horiz-adv-x="710" 
d="M46 809h337q55 0 103 -20.5t80.5 -53.5t51 -75.5t18.5 -86.5q0 -68 -34.5 -118.5t-60.5 -50.5q39 0 74.5 -24.5t58 -68t22.5 -94.5q0 -87 -64.5 -152t-170.5 -65h-415v809zM226 652v-169h173q34 0 58.5 25t24.5 60q0 33 -25 58.5t-57 25.5h-174zM450 157q22 0 41.5 11
t30.5 30.5t11 41.5q0 36 -25 61t-61 25h-221v-169h224z" />
    <glyph glyph-name="Vecyrillic" unicode="&#x432;" horiz-adv-x="710" 
d="M46 809h337q55 0 103 -20.5t80.5 -53.5t51 -75.5t18.5 -86.5q0 -68 -34.5 -118.5t-60.5 -50.5q39 0 74.5 -24.5t58 -68t22.5 -94.5q0 -87 -64.5 -152t-170.5 -65h-415v809zM226 652v-169h173q34 0 58.5 25t24.5 60q0 33 -25 58.5t-57 25.5h-174zM450 157q22 0 41.5 11
t30.5 30.5t11 41.5q0 36 -25 61t-61 25h-221v-169h224z" />
    <glyph glyph-name="Gecyrillic" unicode="&#x413;" horiz-adv-x="617" 
d="M219 0h-173v809h575v-161h-402v-648z" />
    <glyph glyph-name="Gecyrillic" unicode="&#x433;" horiz-adv-x="617" 
d="M219 0h-173v809h575v-161h-402v-648z" />
    <glyph glyph-name="Decyrillic" unicode="&#x414;" horiz-adv-x="871" 
d="M563 162v485h-193v-100q0 -219 -79 -385h272zM743 162h125v-324h-161v162h-550v-162h-161v324h3h3h4h3h4h3h4h4h3h4h4h5h4h5h5h5h6h7h8h12q34 0 62 58t43 152.5t15 203.5v233h531v-647z" />
    <glyph glyph-name="Decyrillic" unicode="&#x434;" horiz-adv-x="871" 
d="M563 162v485h-193v-100q0 -219 -79 -385h272zM743 162h125v-324h-161v162h-550v-162h-161v324h3h3h4h3h4h3h4h4h3h4h4h5h4h5h5h5h6h7h8h12q34 0 62 58t43 152.5t15 203.5v233h531v-647z" />
    <glyph glyph-name="Iecyrillic" unicode="&#x415;" horiz-adv-x="640" 
d="M46 809h579v-161h-404v-145l336 -1v-162l-336 2v-180h404v-162h-579v809z" />
    <glyph glyph-name="Iecyrillic" unicode="&#x435;" horiz-adv-x="640" 
d="M46 809h579v-161h-404v-145l336 -1v-162l-336 2v-180h404v-162h-579v809z" />
    <glyph glyph-name="Zhecyrillic" unicode="&#x416;" horiz-adv-x="1035" 
d="M1030 809l-196 -391l193 -418h-190l-170 350h-69v-350h-164v350h-68l-170 -350h-190l193 418l-196 391h197l166 -323h68v323h164v-323h69l165 323h198z" />
    <glyph glyph-name="Zhecyrillic" unicode="&#x436;" horiz-adv-x="1035" 
d="M1030 809l-196 -391l193 -418h-190l-170 350h-69v-350h-164v350h-68l-170 -350h-190l193 418l-196 391h197l166 -323h68v323h164v-323h69l165 323h198z" />
    <glyph glyph-name="Zecyrillic" unicode="&#x417;" horiz-adv-x="690" 
d="M558 424q53 -32 81.5 -78t28.5 -100q0 -119 -87 -190t-232 -71q-90 0 -167 32.5t-124 93.5t-47 135v16h170v-16q-1 -33 25.5 -57.5t61.5 -34t72 -9.5q57 1 103.5 30.5t44.5 69.5q-1 37 -16 59t-56.5 35t-113.5 13v135q87 2 128 27.5t41 65.5q0 24 -20.5 44t-48.5 30
t-54 10q-57 0 -95 -27t-38 -72v-16h-170v16q0 117 77 189.5t210 72.5q145 0 232 -71.5t87 -190.5q0 -82 -93 -141z" />
    <glyph glyph-name="Zecyrillic" unicode="&#x437;" horiz-adv-x="690" 
d="M558 424q53 -32 81.5 -78t28.5 -100q0 -119 -87 -190t-232 -71q-90 0 -167 32.5t-124 93.5t-47 135v16h170v-16q-1 -33 25.5 -57.5t61.5 -34t72 -9.5q57 1 103.5 30.5t44.5 69.5q-1 37 -16 59t-56.5 35t-113.5 13v135q87 2 128 27.5t41 65.5q0 24 -20.5 44t-48.5 30
t-54 10q-57 0 -95 -27t-38 -72v-16h-170v16q0 117 77 189.5t210 72.5q145 0 232 -71.5t87 -190.5q0 -82 -93 -141z" />
    <glyph glyph-name="Iicyrillic" unicode="&#x418;" horiz-adv-x="825" 
d="M46 809h170v-528l392 528h171v-809h-171v533l-392 -533h-170v809z" />
    <glyph glyph-name="Iicyrillic" unicode="&#x438;" horiz-adv-x="825" 
d="M46 809h170v-528l392 528h171v-809h-171v533l-392 -533h-170v809z" />
    <glyph glyph-name="Iishortcyrillic" unicode="&#x419;" horiz-adv-x="826" 
d="M608 809h171v-809h-171v533l-392 -533h-170v809h170v-528zM412.5 825q-74.5 0 -127.5 49t-53 128v5h101v-5q0 -24 12 -42t29.5 -27t37.5 -9q32 0 55.5 21t23.5 57v5h102v-5q0 -79 -53 -128t-127.5 -49z" />
    <glyph glyph-name="Iishortcyrillic" unicode="&#x439;" horiz-adv-x="826" 
d="M608 809h171v-809h-171v533l-392 -533h-170v809h170v-528zM412.5 825q-74.5 0 -127.5 49t-53 128v5h101v-5q0 -24 12 -42t29.5 -27t37.5 -9q32 0 55.5 21t23.5 57v5h102v-5q0 -79 -53 -128t-127.5 -49z" />
    <glyph glyph-name="Kacyrillic" unicode="&#x41a;" horiz-adv-x="747" 
d="M559 0l-255 355l-88 -96v-259h-170v809h170v-336l309 336h197l-303 -330l339 -479h-199z" />
    <glyph glyph-name="Kacyrillic" unicode="&#x43a;" horiz-adv-x="747" 
d="M559 0l-255 355l-88 -96v-259h-170v809h170v-336l309 336h197l-303 -330l339 -479h-199z" />
    <glyph glyph-name="Elcyrillic" unicode="&#x41b;" horiz-adv-x="736" 
d="M164 809h524v-807h-177v647h-198v-184v-49.5t-1.5 -55t-4.5 -60.5t-8.5 -60t-14 -61t-21.5 -54.5t-29 -50t-39 -38.5t-50 -27q-25 -9 -65 -9t-85 4v160q72 -7 104 12q65 35 65 328v305z" />
    <glyph glyph-name="Elcyrillic" unicode="&#x43b;" horiz-adv-x="736" 
d="M164 809h524v-807h-177v647h-198v-184v-49.5t-1.5 -55t-4.5 -60.5t-8.5 -60t-14 -61t-21.5 -54.5t-29 -50t-39 -38.5t-50 -27q-25 -9 -65 -9t-85 4v160q72 -7 104 12q65 35 65 328v305z" />
    <glyph glyph-name="Emcyrillic" unicode="&#x41c;" horiz-adv-x="929" 
d="M695 809h188v-809h-171v464l-180 -464h-135l-181 464v-464h-170v809h188l230 -636z" />
    <glyph glyph-name="Emcyrillic" unicode="&#x43c;" horiz-adv-x="929" 
d="M695 809h188v-809h-171v464l-180 -464h-135l-181 464v-464h-170v809h188l230 -636z" />
    <glyph glyph-name="Encyrillic" unicode="&#x41d;" horiz-adv-x="794" 
d="M226 809v-306h341v306h180v-809h-180v342h-341v-342h-180v809h180z" />
    <glyph glyph-name="Encyrillic" unicode="&#x43d;" horiz-adv-x="794" 
d="M226 809v-306h341v306h180v-809h-180v342h-341v-342h-180v809h180z" />
    <glyph glyph-name="Ocyrillic" unicode="&#x41e;" horiz-adv-x="808" 
d="M404 826q83 0 153.5 -28.5t122 -82t80.5 -133t29 -176.5q0 -102 -30 -183t-83 -132.5t-122.5 -78.5t-149.5 -27q-64 0 -121.5 17t-106 52t-83.5 84.5t-55 118t-20 149.5q0 98 30.5 179t83 133t122.5 80t150 28zM404 153q95 0 153 63.5t58 189.5q0 63 -16 112t-45 79.5
t-67 46t-83.5 15.5t-83.5 -15.5t-66.5 -46t-44.5 -79.5t-16 -112q0 -125 58 -189t153 -64z" />
    <glyph glyph-name="Ocyrillic" unicode="&#x43e;" horiz-adv-x="808" 
d="M404 826q83 0 153.5 -28.5t122 -82t80.5 -133t29 -176.5q0 -102 -30 -183t-83 -132.5t-122.5 -78.5t-149.5 -27q-64 0 -121.5 17t-106 52t-83.5 84.5t-55 118t-20 149.5q0 98 30.5 179t83 133t122.5 80t150 28zM404 153q95 0 153 63.5t58 189.5q0 63 -16 112t-45 79.5
t-67 46t-83.5 15.5t-83.5 -15.5t-66.5 -46t-44.5 -79.5t-16 -112q0 -125 58 -189t153 -64z" />
    <glyph glyph-name="Pecyrillic" unicode="&#x41f;" horiz-adv-x="776" 
d="M46 809h683v-809h-180v648h-323v-648h-180v809z" />
    <glyph glyph-name="Pecyrillic" unicode="&#x43f;" horiz-adv-x="776" 
d="M46 809h683v-809h-180v648h-323v-648h-180v809z" />
    <glyph glyph-name="Ercyrillic" unicode="&#x420;" horiz-adv-x="694" 
d="M420 809q63 0 115 -22.5t84.5 -60t49.5 -83.5t17 -95q0 -80 -37 -140t-95 -88.5t-126 -28.5h-202v-291h-180v809h120h254zM417 448q24 0 44.5 7t35.5 19.5t24 32t9 41.5q0 46 -33 75t-80 29h-191v-204h191z" />
    <glyph glyph-name="Ercyrillic" unicode="&#x440;" horiz-adv-x="694" 
d="M420 809q63 0 115 -22.5t84.5 -60t49.5 -83.5t17 -95q0 -80 -37 -140t-95 -88.5t-126 -28.5h-202v-291h-180v809h120h254zM417 448q24 0 44.5 7t35.5 19.5t24 32t9 41.5q0 46 -33 75t-80 29h-191v-204h191z" />
    <glyph glyph-name="Escyrillic" unicode="&#x421;" horiz-adv-x="797" 
d="M601 326h183q-15 -109 -70 -187.5t-134.5 -116t-175.5 -37.5q-64 0 -121.5 17t-106 52t-83.5 84.5t-55 118t-20 149.5q0 98 30.5 179t83 133t122.5 80t150 28q145 0 247 -84t129 -234h-186q-16 74 -67 112.5t-123 38.5q-95 0 -153 -64.5t-58 -188.5q0 -125 58 -189
t153 -64q79 0 133.5 44t63.5 129z" />
    <glyph glyph-name="Escyrillic" unicode="&#x441;" horiz-adv-x="797" 
d="M601 326h183q-15 -109 -70 -187.5t-134.5 -116t-175.5 -37.5q-64 0 -121.5 17t-106 52t-83.5 84.5t-55 118t-20 149.5q0 98 30.5 179t83 133t122.5 80t150 28q145 0 247 -84t129 -234h-186q-16 74 -67 112.5t-123 38.5q-95 0 -153 -64.5t-58 -188.5q0 -125 58 -189
t153 -64q79 0 133.5 44t63.5 129z" />
    <glyph glyph-name="Tecyrillic" unicode="&#x422;" horiz-adv-x="776" 
d="M15 809h744v-161h-282v-648h-180v648h-282v161z" />
    <glyph glyph-name="Tecyrillic" unicode="&#x442;" horiz-adv-x="776" 
d="M15 809h744v-161h-282v-648h-180v648h-282v161z" />
    <glyph glyph-name="Ucyrillic" unicode="&#x423;" horiz-adv-x="713" 
d="M512 809h211l-393 -809h-203l118 259l-255 550h209l148 -353z" />
    <glyph glyph-name="Ucyrillic" unicode="&#x443;" horiz-adv-x="713" 
d="M512 809h211l-393 -809h-203l118 259l-255 550h209l148 -353z" />
    <glyph glyph-name="Efcyrillic" unicode="&#x424;" horiz-adv-x="870" 
d="M519 722q70 -10 130.5 -34.5t108.5 -63t75.5 -96t27.5 -127.5q0 -71 -28 -129.5t-76 -96t-109 -59t-129 -25.5v-91h-167v92q-45 4 -86 13.5t-90 32.5t-84 55.5t-58.5 86.5t-23.5 122q0 57 19 109t57.5 97.5t107 76.5t158.5 40v84h167v-87zM192 401q0 -31 6 -55.5
t16.5 -42t24.5 -30.5t32.5 -21t38 -12.5t42.5 -6.5v336q-36 -3 -62.5 -12.5t-49.5 -27.5t-35.5 -50.5t-12.5 -77.5zM519 234q159 23 159 168q0 81 -42.5 118t-116.5 47v-333z" />
    <glyph glyph-name="Efcyrillic" unicode="&#x444;" horiz-adv-x="870" 
d="M519 722q70 -10 130.5 -34.5t108.5 -63t75.5 -96t27.5 -127.5q0 -71 -28 -129.5t-76 -96t-109 -59t-129 -25.5v-91h-167v92q-45 4 -86 13.5t-90 32.5t-84 55.5t-58.5 86.5t-23.5 122q0 57 19 109t57.5 97.5t107 76.5t158.5 40v84h167v-87zM192 401q0 -31 6 -55.5
t16.5 -42t24.5 -30.5t32.5 -21t38 -12.5t42.5 -6.5v336q-36 -3 -62.5 -12.5t-49.5 -27.5t-35.5 -50.5t-12.5 -77.5zM519 234q159 23 159 168q0 81 -42.5 118t-116.5 47v-333z" />
    <glyph glyph-name="Khacyrillic" unicode="&#x425;" horiz-adv-x="810" 
d="M814 809l-281 -404l281 -405h-223l-170 244l-169 -244h-224l282 405l-282 404h224l169 -243l170 243h223z" />
    <glyph glyph-name="Khacyrillic" unicode="&#x445;" horiz-adv-x="810" 
d="M814 809l-281 -404l281 -405h-223l-170 244l-169 -244h-224l282 405l-282 404h224l169 -243l170 243h223z" />
    <glyph glyph-name="Tsecyrillic" unicode="&#x426;" horiz-adv-x="839" 
d="M711 162h126v-324h-161v162h-630v809h169v-647h328v647h168v-647z" />
    <glyph glyph-name="Tsecyrillic" unicode="&#x446;" horiz-adv-x="839" 
d="M711 162h126v-324h-161v162h-630v809h169v-647h328v647h168v-647z" />
    <glyph glyph-name="Checyrillic" unicode="&#x427;" horiz-adv-x="662" 
d="M436 809h179v-809h-179v366q-29 -19 -70 -29.5t-69 -11.5l-27 -1q-113 0 -185.5 61.5t-72.5 169.5v254h164v-234q0 -13 3 -24.5t7.5 -20.5t11.5 -17t15.5 -13.5t18.5 -10.5t21.5 -7.5t23.5 -4t24 -1.5q35 0 64.5 10t50 33t20.5 56v234z" />
    <glyph glyph-name="Checyrillic" unicode="&#x447;" horiz-adv-x="662" 
d="M436 809h179v-809h-179v366q-29 -19 -70 -29.5t-69 -11.5l-27 -1q-113 0 -185.5 61.5t-72.5 169.5v254h164v-234q0 -13 3 -24.5t7.5 -20.5t11.5 -17t15.5 -13.5t18.5 -10.5t21.5 -7.5t23.5 -4t24 -1.5q35 0 64.5 10t50 33t20.5 56v234z" />
    <glyph glyph-name="Shacyrillic" unicode="&#x428;" horiz-adv-x="1064" 
d="M849 809h168v-809h-971v809h169v-647h232v647h169v-647h233v647z" />
    <glyph glyph-name="Shacyrillic" unicode="&#x448;" horiz-adv-x="1064" 
d="M849 809h168v-809h-971v809h169v-647h232v647h169v-647h233v647z" />
    <glyph glyph-name="Shchacyrillic" unicode="&#x429;" horiz-adv-x="1145" 
d="M1017 161h125v-323h-161v162h-935v809h169v-647h232v647h169v-647h233v647h168v-648z" />
    <glyph glyph-name="Shchacyrillic" unicode="&#x449;" horiz-adv-x="1145" 
d="M1017 161h125v-323h-161v162h-935v809h169v-647h232v647h169v-647h233v647h168v-648z" />
    <glyph glyph-name="Hardsigncyrillic" unicode="&#x42a;" horiz-adv-x="794" 
d="M465 484q71 0 126.5 -13t92 -35t60.5 -53.5t34 -67t10 -77.5q0 -39 -8.5 -71t-24.5 -55.5t-37 -41.5t-48.5 -30t-55 -20t-61.5 -12.5t-63.5 -6t-64.5 -1.5h-295v648h-130v161h310v-325h155zM618 241v22q0 40 -36 67.5t-95 27.5h-175v-213h175q58 0 94.5 27.5t36.5 68.5z
" />
    <glyph glyph-name="Hardsigncyrillic" unicode="&#x44a;" horiz-adv-x="794" 
d="M465 484q71 0 126.5 -13t92 -35t60.5 -53.5t34 -67t10 -77.5q0 -39 -8.5 -71t-24.5 -55.5t-37 -41.5t-48.5 -30t-55 -20t-61.5 -12.5t-63.5 -6t-64.5 -1.5h-295v648h-130v161h310v-325h155zM618 241v22q0 40 -36 67.5t-95 27.5h-175v-213h175q58 0 94.5 27.5t36.5 68.5z
" />
    <glyph glyph-name="Yericyrillic" unicode="&#x42b;" horiz-adv-x="1012" 
d="M786 809h180v-809h-180v809zM381 484q71 0 126.5 -13t92 -35t60 -53.5t33.5 -67t10 -77.5q0 -39 -8 -71t-24.5 -55.5t-37 -41.5t-48 -30t-55 -20t-61.5 -12.5t-63.5 -6t-64.5 -1.5h-295v809h180v-325h155zM534 241v22q0 19 -9.5 36.5t-26 30.5t-41.5 20.5t-54 7.5h-175
v-213h175q58 0 94.5 27.5t36.5 68.5z" />
    <glyph glyph-name="Yericyrillic" unicode="&#x44b;" horiz-adv-x="1012" 
d="M786 809h180v-809h-180v809zM381 484q71 0 126.5 -13t92 -35t60 -53.5t33.5 -67t10 -77.5q0 -39 -8 -71t-24.5 -55.5t-37 -41.5t-48 -30t-55 -20t-61.5 -12.5t-63.5 -6t-64.5 -1.5h-295v809h180v-325h155zM534 241v22q0 19 -9.5 36.5t-26 30.5t-41.5 20.5t-54 7.5h-175
v-213h175q58 0 94.5 27.5t36.5 68.5z" />
    <glyph glyph-name="Softsigncyrillic" unicode="&#x42c;" horiz-adv-x="710" 
d="M381 484q71 0 126.5 -13t92 -35t60 -53.5t33.5 -67t10 -77.5q0 -39 -8 -71t-24.5 -55.5t-37 -41.5t-48 -30t-55 -20t-61.5 -12.5t-63.5 -6t-64.5 -1.5h-295v809h180v-325h155zM534 241v22q0 40 -36.5 67.5t-94.5 27.5h-175v-213h175q58 0 94.5 27.5t36.5 68.5z" />
    <glyph glyph-name="Softsigncyrillic" unicode="&#x44c;" horiz-adv-x="710" 
d="M381 484q71 0 126.5 -13t92 -35t60 -53.5t33.5 -67t10 -77.5q0 -39 -8 -71t-24.5 -55.5t-37 -41.5t-48 -30t-55 -20t-61.5 -12.5t-63.5 -6t-64.5 -1.5h-295v809h180v-325h155zM534 241v22q0 40 -36.5 67.5t-94.5 27.5h-175v-213h175q58 0 94.5 27.5t36.5 68.5z" />
    <glyph glyph-name="Ereversedcyrillic" unicode="&#x42d;" horiz-adv-x="797" 
d="M391 826q80 0 150 -28t122.5 -80t83 -133t30.5 -179q0 -101 -30.5 -182t-83.5 -132.5t-122.5 -79t-149.5 -27.5q-96 0 -175.5 37.5t-134.5 116t-70 187.5h178q13 -85 68 -129t134 -44q84 0 140 50t68 149h-264v136h259q-18 84 -72 127.5t-131 43.5q-72 0 -124.5 -39.5
t-69.5 -111.5h-182q28 150 129.5 234t246.5 84z" />
    <glyph glyph-name="Ereversedcyrillic" unicode="&#x44d;" horiz-adv-x="797" 
d="M391 826q80 0 150 -28t122.5 -80t83 -133t30.5 -179q0 -101 -30.5 -182t-83.5 -132.5t-122.5 -79t-149.5 -27.5q-96 0 -175.5 37.5t-134.5 116t-70 187.5h178q13 -85 68 -129t134 -44q84 0 140 50t68 149h-264v136h259q-18 84 -72 127.5t-131 43.5q-72 0 -124.5 -39.5
t-69.5 -111.5h-182q28 150 129.5 234t246.5 84z" />
    <glyph glyph-name="IUcyrillic" unicode="&#x42e;" horiz-adv-x="1119" 
d="M715 826q82 0 153 -28.5t122.5 -82t80.5 -133t29 -176.5q0 -102 -30.5 -183t-83.5 -132.5t-122 -78.5t-150 -27q-100 0 -181.5 40.5t-136 124.5t-65.5 201h-105v-350h-180v809h180v-323h108q23 159 128.5 249t252.5 90zM715 153q92 0 151.5 64t59.5 189t-58.5 189
t-152.5 64q-96 0 -154 -62t-58 -191q0 -125 59 -189t153 -64z" />
    <glyph glyph-name="IUcyrillic" unicode="&#x44e;" horiz-adv-x="1119" 
d="M715 826q82 0 153 -28.5t122.5 -82t80.5 -133t29 -176.5q0 -102 -30.5 -183t-83.5 -132.5t-122 -78.5t-150 -27q-100 0 -181.5 40.5t-136 124.5t-65.5 201h-105v-350h-180v809h180v-323h108q23 159 128.5 249t252.5 90zM715 153q92 0 151.5 64t59.5 189t-58.5 189
t-152.5 64q-96 0 -154 -62t-58 -191q0 -125 59 -189t153 -64z" />
    <glyph glyph-name="IAcyrillic" unicode="&#x42f;" horiz-adv-x="744" 
d="M4 0l191 310q-71 26 -113.5 93t-42.5 146q0 50 19.5 97t55.5 83.5t90 58.5t119 22l374 -1v-809h-180v292h-148l-160 -292h-205zM309 449h208v204h-208q-48 0 -80.5 -29t-32.5 -75t32 -73t81 -27z" />
    <glyph glyph-name="IAcyrillic" unicode="&#x44f;" horiz-adv-x="744" 
d="M4 0l191 310q-71 26 -113.5 93t-42.5 146q0 50 19.5 97t55.5 83.5t90 58.5t119 22l374 -1v-809h-180v292h-148l-160 -292h-205zM309 449h208v204h-208q-48 0 -80.5 -29t-32.5 -75t32 -73t81 -27z" />
    <glyph glyph-name="Gheupturncyrillic" unicode="&#x490;" horiz-adv-x="617" 
d="M478 952h143v-304h-400v-648h-175v809h432v143z" />
    <glyph glyph-name="Gheupturncyrillic" unicode="&#x491;" horiz-adv-x="617" 
d="M478 952h143v-304h-400v-648h-175v809h432v143z" />
    <glyph glyph-name="endash" unicode="&#x2013;" horiz-adv-x="603" 
d="M584 368h-565v133h565v-133z" />
    <glyph glyph-name="emdash" unicode="&#x2014;" horiz-adv-x="848" 
d="M828 368h-809v133h809v-133z" />
    <glyph glyph-name="quotedblleft" unicode="&#x201c;" horiz-adv-x="425" 
d="M26 672q0 74 49 118t129 35v-72q-25 4 -48.5 0t-40.5 -25.5t-18 -55.5h91v-174h-162v174zM305 718q0 -1 -0.5 -1t-0.5 -1q-9 -18 -10 -44h91v-174h-162v174q0 74 49 118t129 35v-72q-28 6 -54 -2.5t-41 -30.5l-0.5 -1z" />
    <glyph glyph-name="quotedblright" unicode="&#x201d;" horiz-adv-x="425" 
d="M237 809h162v-174q0 -74 -49 -118t-129 -35v72q41 -9 73.5 10.5t33.5 70.5h-91v174zM40 635v174h162v-174q0 -74 -49 -118t-129 -35v72q28 -6 54 2.5t41 30.5l0.5 1l0.5 1q0 1 0.5 1t0.5 1q10 18 10 44h-91z" />
    <glyph glyph-name="quotedblbase" unicode="&#x201e;" horiz-adv-x="467" 
d="M259 174h162v-174q0 -74 -49 -118t-129 -35v72q39 -9 71.5 10.5t35.5 60.5v10h-91v174zM62 0v174h162v-174q0 -74 -49 -118t-129 -35v72q25 -6 48.5 0t40 24.5t18.5 46.5v10h-91z" />
    <glyph glyph-name="bullet" unicode="&#x2022;" horiz-adv-x="352" 
d="M176 585q58 0 94 -38.5t36 -101.5q0 -67 -38.5 -103t-91.5 -36t-91.5 36t-38.5 103q0 62 36.5 101t93.5 39z" />
    <glyph glyph-name="Euro" unicode="&#x20ac;" horiz-adv-x="895" 
d="M693 296h180q-29 -150 -132 -230.5t-244 -80.5q-138 0 -239.5 78t-133.5 223h-109v97h97v23v22h-97v98h110q32 142 134 221t238 79q142 0 242.5 -80t131.5 -223h-180q-16 45 -45 76t-66.5 45.5t-82.5 14.5q-67 0 -117.5 -33.5t-74.5 -99.5h215v-98h-233q-1 -15 -1 -22
t1 -23h233v-97h-215q24 -67 74.5 -100t117.5 -33q71 0 122.5 35.5t73.5 107.5z" />
    <glyph glyph-name="uni20bd" unicode="&#x20bd;" horiz-adv-x="821" 
d="M509 809q63 0 114.5 -22.5t84 -60t50 -83.5t17.5 -95q0 -80 -37.5 -140t-95.5 -88.5t-126 -28.5h-202v-41h292v-118h-292v-132h-180v132h-88v118h88v559h120h255zM505 448q49 0 81 27.5t32 73t-32.5 74.5t-80.5 29h-191v-204h191z" />
    <glyph glyph-name="arrowleft" unicode="&#x2190;" horiz-adv-x="1120" 
d="M46 367v131q5 1 14.5 4t36 13.5t51 24t54 37t51 51t36 67.5t14.5 85h124q1 -6 2 -16t-2.5 -41t-13.5 -62.5t-37.5 -76.5t-68.5 -86h767v-131h-767q41 -41 68.5 -85.5t37.5 -78t14 -61t2 -42.5l-2 -15h-124q0 35 -9 67.5t-23.5 57t-34 46.5t-40.5 37.5t-42.5 28.5t-41 21
t-34 13.5t-23.5 7.5z" />
    <glyph glyph-name="arrowup" unicode="&#x2191;" horiz-adv-x="787" 
d="M328 1028h131q1 -6 4 -15t13.5 -36t24 -51t37 -53.5t51 -51t67.5 -36t85 -14.5v-124q-6 -2 -16 -2.5t-41 2.5t-62.5 13.5t-76.5 38t-86 68.5v-767h-131v767q-41 -42 -85.5 -69.5t-78 -37t-61 -13.5t-42.5 -3l-15 2v125q45 0 85 14t67.5 36.5t50.5 50t37.5 55t24 50
t13.5 36.5z" />
    <glyph glyph-name="arrowright" unicode="&#x2192;" horiz-adv-x="1120" 
d="M1074 498v-131q-6 -1 -15 -4t-36 -13.5t-51 -24t-53.5 -37t-51 -51t-36 -67.5t-14.5 -85h-125q0 2 -0.5 5t-1 13.5t0.5 22t3.5 28.5t7.5 34.5t14.5 39.5t22 44t31.5 46.5t43 48.5h-767v131h767q-42 41 -69.5 85.5t-37 78t-13.5 61t-3 42.5l2 15h125q0 -45 14 -85
t36.5 -67.5t50 -50.5t55 -37.5t50 -24t36.5 -13.5z" />
    <glyph glyph-name="arrowdown" unicode="&#x2193;" horiz-adv-x="787" 
d="M459 0h-131q-1 5 -4 14.5t-13.5 36t-24 51t-37 54t-51 51t-67.5 36t-85 14.5v124q5 1 15 2t41.5 -2.5t63 -13.5t76.5 -37.5t86 -68.5v767h131v-767q30 30 62 53t58.5 35.5t52 20.5t45 10.5t34 3t22.5 -1.5l8 -1v-124q-35 0 -67.5 -9t-57 -23.5t-46.5 -34t-37.5 -40.5
t-28.5 -42.5t-21 -41t-13.5 -34t-8.5 -23.5z" />
    <glyph glyph-name="quotedbl.alt1" unicode="&#xf006;" horiz-adv-x="468" 
d="M46 672q0 74 49 118t129 35v-72q-25 4 -48.5 0t-40.5 -25.5t-18 -55.5h91v-174h-162v174zM325 718q0 -1 -0.5 -1t-0.5 -1q-9 -18 -10 -44h91v-174h-162v174q0 74 49 118t129 35v-72q-28 6 -54 -2.5t-41 -30.5l-0.5 -1z" />
    <glyph glyph-name="E.alt1" unicode="&#xf00c;" horiz-adv-x="821" 
d="M611 326h178q-15 -109 -70 -187.5t-134.5 -116t-175.5 -37.5q-80 0 -149.5 27.5t-122.5 79t-83.5 132.5t-30.5 182q0 98 30.5 179t83 133t122.5 80t150 28q145 0 247 -84t129 -234h-182q-16 72 -69 111.5t-125 39.5q-77 0 -131 -43.5t-72 -127.5h259v-136h-264
q12 -99 68 -149t140 -50q79 0 134.5 44t67.5 129z" />
    <glyph glyph-name="Eogonek.alt1" unicode="&#xf00d;" horiz-adv-x="812" 
d="M789 325q-17 -131 -90 -214.5t-181 -112.5q-2 -1 -11 -3.5t-11.5 -3.5t-11 -4t-12 -4.5t-10.5 -5t-10 -7t-7.5 -8t-6.5 -9.5t-4 -11t-2 -13q1 -18 16 -27.5t37 -10.5t44 1t37 6l15 3v-85q-5 -1 -13.5 -3t-33 -4t-47 -2t-50 5.5t-47 17t-33.5 34.5t-14 55q0 37 18 68
q-57 6 -107.5 26.5t-93 56t-73 83.5t-47.5 112.5t-17 139.5q0 99 30.5 179.5t83 132.5t122.5 80.5t150 28.5q145 0 247 -84.5t129 -233.5h-182q-16 72 -69 111t-125 39q-51 0 -91.5 -18t-70 -57t-41.5 -96h259v-136h-264q12 -99 68 -149t140 -50q79 0 134.5 44t67.5 129h178
z" />
    <glyph glyph-name="Zhecyrillic.alt1" unicode="&#xf00e;" horiz-adv-x="1909" 
d="M1680 326h183q-23 -165 -120 -253t-243 -88q-152 0 -251.5 95t-114.5 271h-99v-350h-164v350h-97q-14 -176 -113.5 -271t-251.5 -95q-146 0 -243.5 88t-119.5 253h183q10 -86 56.5 -129.5t123.5 -43.5q92 0 142.5 62.5t50.5 190.5q0 126 -50.5 189.5t-142.5 63.5
q-141 0 -172 -151h-187q28 152 122 235t237 83q144 0 242.5 -89t119.5 -250h100v323h164v-323h102q21 161 119.5 250t243.5 89q143 0 237 -83t121 -235h-186q-32 151 -172 151q-92 0 -143 -63.5t-51 -189.5q0 -65 13.5 -113t38.5 -79t60.5 -46t81.5 -15q77 0 123.5 43.5
t56.5 129.5z" />
    </font>
</defs>
</svg>
